<?xml version="1.0" encoding="UTF-8"?>
<svg id="Layer_1" xmlns="http://www.w3.org/2000/svg" version="1.1" viewBox="0 0 144 144">
  <!-- Generator: Adobe Illustrator 29.4.0, SVG Export Plug-In . SVG Version: 2.1.0 Build 152)  -->
  <defs>
    <style>
      .st0 {
        fill: #eaeaea;
      }
    </style>
  </defs>
  <circle class="st0" cx="72" cy="72" r="72"/>
  <path d="M124,102c-.5-.2-16.6-6.6-32.1-8.5-1.9-.2-3.4-.3-4.5-.3-2,0-3.8,1-4.7,2.7s-1.2,2.3-2,4.1c-6,14.1-8.6,31-8.7,32h0c0-1-2.7-17.9-8.7-32-.8-1.8-1.4-3.1-2-4.1-1-1.7-2.8-2.7-4.7-2.7s-2.5,0-4.5.3c-15.5,1.9-31.6,8.3-32.1,8.5.4-.3,14-11.1,23.4-23.6,1.2-1.6,2-2.8,2.5-3.7,1-1.7,1-3.8,0-5.4s-1.4-2.2-2.5-3.7c-9.4-12.5-23-23.3-23.4-23.6.5.2,16.6,6.6,32.1,8.5,1.9.2,3.4.3,4.5.3,2,0,3.8-1,4.7-2.7s1.2-2.3,2-4.1c6-14.1,8.6-31,8.7-32h0c0,1,2.7,17.9,8.7,32,.8,1.8,1.4,3.1,2,4.1,1,1.7,2.8,2.7,4.7,2.7s2.5,0,4.5-.3c15.5-1.9,31.6-8.3,32.1-8.5-.4.3-14,11.1-23.4,23.6-1.2,1.6-2,2.8-2.5,3.7-1,1.7-1,3.8,0,5.4s1.4,2.2,2.5,3.7c9.4,12.5,23,23.3,23.4,23.6Z"/>
</svg>