<?xml version="1.0" encoding="UTF-8"?>
<svg id="Layer_1" xmlns="http://www.w3.org/2000/svg" version="1.1" viewBox="0 0 144 144">
  <!-- Generator: Adobe Illustrator 29.4.0, SVG Export Plug-In . SVG Version: 2.1.0 Build 152)  -->
  <defs>
    <style>
      .st0 {
        fill: #231f20;
      }

      .st1 {
        fill: #c3692f;
      }
    </style>
  </defs>
  <g id="Fighting">
    <circle class="st1" cx="72" cy="72" r="72"/>
    <path class="st0" d="M115.1,74.4h-29.8l-4.5,4.6v15.5l-.3.3-5.1,5.2-.3.3h-10.3l-4.5,4.5v10.3l-.3.3-5.1,5.2-.3.3h-4.5v8h44v-9.7l.3-.3,5.2-5.2.3-.3h15.4l4.5-4.5v-30.1l-4.5-4.5h0ZM52.6,99.2v-.5l.3-.3,5.1-5.2.3-.3h10.4l4.5-4.5v-9.4l-4.5-4.5H28.5l-4.5,4.5v30.1l4.5,4.5h19.6l4.5-4.5v-9.9h0ZM79,66.6h11.4c2.3,0,4.1-2.1,4.1-4.6V27.2c0-1.3-.5-2.6-1.4-3.5-.8-.8-1.7-1.2-2.8-1.2h-11.4c-1,0-2,.4-2.8,1.2-.9.9-1.4,2.1-1.4,3.5v34.7c0,1.3.5,2.6,1.4,3.5.8.8,1.7,1.2,2.8,1.2M53.3,66.6h11.4c2.3,0,4.1-2.1,4.1-4.6V27.2c0-1.3-.5-2.6-1.4-3.5-.8-.8-1.7-1.2-2.7-1.2h-11.4c-1,0-2,.4-2.8,1.2-.9.9-1.4,2.1-1.4,3.5v34.7c0,1.3.5,2.6,1.4,3.5.8.8,1.7,1.2,2.8,1.2M104.2,67.8h11.1c2.2,0,4-1.8,4-4v-31.1c0-1.1-.4-2.1-1.2-2.9-.8-.8-1.8-1.2-2.8-1.2h-11.1c-1.1,0-2.1.4-2.8,1.2-.8.8-1.2,1.8-1.2,2.9v31.1c0,1.1.4,2.1,1.2,2.8.8.8,1.8,1.2,2.8,1.2M25.3,66.8c-.8-.8-1.2-1.8-1.2-2.9v-31.1c0-1.1.4-2.1,1.2-2.9.8-.8,1.8-1.2,2.8-1.2h11.1c1,0,2,.4,2.8,1.2.8.8,1.2,1.8,1.2,2.9v31.1c0,2.2-1.8,4-4,4h-11.1c-1,0-2-.4-2.8-1.2"/>
  </g>
</svg>