<?xml version="1.0" encoding="UTF-8"?>
<svg id="Layer_1" xmlns="http://www.w3.org/2000/svg" version="1.1" viewBox="0 0 144 144">
  <!-- Generator: Adobe Illustrator 29.4.0, SVG Export Plug-In . SVG Version: 2.1.0 Build 152)  -->
  <defs>
    <style>
      .st0 {
        fill: #ed1a3b;
      }

      .st1 {
        fill: #231f20;
      }
    </style>
  </defs>
  <g id="Fire">
    <circle class="st0" cx="72" cy="72" r="72"/>
    <path class="st1" d="M91.3,113.7c6.9,9.3-11.3,13.7-19,13.7s-15.8-2.7-18.1-4.5c-8.9-6.9-2.3-11.5-2.3-11.5,0,0,8-8.8-4.6-12.6,15.7.2,12.4,7.5,12.9,8.7,0,0,8.3-7,2-12.3-10.7-8.9,5.5-16.7,13.2-18.2-1.9,1.5-7.8,10.1-3.8,11.8,8.7,3.7,7,13.7,6.1,15.5,1.7-2.2,3.8-10.2,16.8-9.9-12.1,4.7-5.7,16.1-3.3,19.3M128.1,80.2c-4.8,6.9-20.6,14.3-27.6,13.4,4-2.3,17-10.6,20-22.6,1.5-6.1.2-12.2-3.9-18.2l-.9-1.3v1.5c-.5,9.8-13.1,16.2-24.9,17.4,2.7-9.6,1.1-27.3-6.3-40.1-4.9-8.5-11.6-13.9-19.8-15.8l-1.5-.3.9,1.2c10.9,13.8,5,18.5.7,22-10.9,8.8-16.9,14.2-19.3,19.9-2.5,5.7-1.3,11.4,1.8,19-7.2-6.2-17-15.5-5.4-31.2l-.8-.7c-9.8,7.6-15.4,15.9-16.5,24.7-1.7,13.1,6.5,23.7,10.4,28.8.8.9,1.5,1.9,1.7,2.3,0,0,0,0-.1,0-2.8.3-16-9.5-17.5-11.3l-.9.4c3.7,15.5,14.7,25.1,23.2,30.4,9.7,6,21.8,9.8,31.4,9.8,7.4,0,19.3-2.7,30.5-10.1,13.3-8.8,22.2-22.2,25.7-38.8l-.9-.4h0Z"/>
  </g>
</svg>