<?xml version="1.0" encoding="UTF-8"?>
<svg id="Layer_1" xmlns="http://www.w3.org/2000/svg" version="1.1" viewBox="0 0 144 144">
  <!-- Generator: Adobe Illustrator 29.4.0, SVG Export Plug-In . SVG Version: 2.1.0 Build 152)  -->
  <defs>
    <style>
      .st0 {
        fill: #0db14b;
      }

      .st1 {
        fill: #231f20;
      }
    </style>
  </defs>
  <g id="Grass">
    <circle class="st0" cx="72" cy="72" r="72"/>
    <path class="st1" d="M108.5,87.5c-26.4-5.1-41,7.7-45.6,14-.8,10.3-.6,16.7-.6,16.7,0,0-4.3-6.9-4.9-20.3-4.9-6.1-13.8-14.3-27.5-12.5,11.2-5.3,22-1.1,27.8,3.4.3-4.1,1.1-8.7,2.3-13.6-4.3-5.5-11.6-11.4-25.3-10.4,13.7-4.3,22.8-.9,27.3,3.3.9-2.8,1.9-5.7,3.1-8.7-2.9-5-8.6-12.4-18.4-12.5,9.9-2.4,17.9,2.5,21.2,6,3.7-7.9,8.5-16.5,14.7-25.7-4.2,8.3-7.6,16.8-10.2,25.2,5.1-3.7,16.2-8.2,31.4-3.4-17.1-2.3-28.7,6.2-33.7,11.3-.8,3-1.6,6-2.2,8.9,7-5,24.2-10.7,42.5-.3-20.7-7.6-37.4,2.5-44.2,8.6-.9,5-1.6,9.7-2.2,14,5-4.2,19.2-12.5,44.6-4.1M125.1,80.6c0-28.7-35.5-65.8-33.8-67.9-5.9,1.2-72.7,28.2-72.8,68-.1,24.4,23.8,31.6,34.8,33.6,1.7,12.1,5.1,19.5,5.1,19.5h14.9c0-.1-1.8-6.4-2.6-18.4,4.3-.5,54.5-7.1,54.4-34.8"/>
  </g>
</svg>