<?xml version="1.0" encoding="UTF-8"?>
<svg id="Layer_1" xmlns="http://www.w3.org/2000/svg" version="1.1" viewBox="0 0 144 144">
  <!-- Generator: Adobe Illustrator 29.4.0, SVG Export Plug-In . SVG Version: 2.1.0 Build 152)  -->
  <defs>
    <style>
      .st0 {
        fill: #231f20;
      }

      .st1 {
        fill: #b6baa7;
      }
    </style>
  </defs>
  <g id="Metal">
    <circle class="st1" cx="72" cy="72" r="72"/>
    <path class="st0" d="M71.3,100.2l-25.5-45c-.2-.4,0-.8.5-.8h51c.4,0,.7.5.5.8l-25.5,45c-.2.4-.8.4-1,0"/>
    <path class="st0" d="M38.5,74.1h-13.1c-.2,0-.4,0-.5-.3l-9.2-16c-.1-.2-.1-.4,0-.6l16.2-28c0-.2.3-.3.5-.3h18.5c.2,0,.4.1.5.3l6.5,11.3c.2.4,0,.8-.5.8h-17.8c-.2,0-.4.1-.5.3l-9,15.5c-.1.2-.1.4,0,.6l8.9,15.4c.2.4,0,.8-.5.8"/>
    <path class="st0" d="M88,125.9h-32.4c-.2,0-.4-.2-.5-.3l-9.3-16c0-.2,0-.4,0-.6l6.5-11.3c.2-.4.8-.4,1,0l8.9,15.4c0,.2.3.3.5.3h17.9c.2,0,.4,0,.5-.2l8.9-15.4c.2-.4.8-.4,1,0l6.5,11.3c0,.2,0,.4,0,.6l-9.2,16c-.1.2-.3.3-.5.3"/>
    <path class="st0" d="M118.1,74.2h-13c-.4,0-.7-.5-.5-.9l8.9-15.4c0-.2,0-.4,0-.6l-8.9-15.5c0-.2-.3-.3-.5-.3l-17.9-.2c-.4,0-.7-.5-.5-.8l6.5-11.3c0-.2.3-.3.5-.3h18.4c.2,0,.4.1.5.3l16.2,28c.1.2.1.4,0,.6l-9.2,16c0,.2-.3.3-.5.3"/>
  </g>
</svg>