<?xml version="1.0" encoding="UTF-8"?>
<svg id="Layer_1" xmlns="http://www.w3.org/2000/svg" version="1.1" viewBox="0 0 144 144">
  <!-- Generator: Adobe Illustrator 29.4.0, SVG Export Plug-In . SVG Version: 2.1.0 Build 152)  -->
  <defs>
    <style>
      .st0 {
        fill: #9d85be;
      }

      .st1 {
        fill: #231f20;
      }
    </style>
  </defs>
  <circle class="st0" cx="72" cy="72" r="72"/>
  <path class="st1" d="M72.2,105.6c-27.9,0-43.7-21.9-49.2-31.5,4.7-8.9,16.8-28.1,37.2-33.8-11.2,4.6-19.2,15.8-19.2,28.9s13.6,31.1,30.4,31.1,30.3-13.9,30.3-31.1-9.2-26-21.8-29.8c22.8,4.1,36.3,25.3,41.3,34.7-5.5,9.6-21.2,31.5-49.2,31.5M69.3,56.5c-.3-.3-.7-.6-1.1-.9,1.1-.3,2.2-.4,3.3-.4,7.5,0,13.7,6.3,13.7,14s-6.1,14-13.7,14-12.8-5.4-13.6-12.3c1.6,1.5,3.6,2.4,5.7,2.4s4.2-.8,5.7-2.4,2.8-4.4,2.8-7.1-1-5.3-2.8-7.1M133.7,74.3s0,0,0,0h0c-2-4.8-20.7-46.5-61.4-46.5S12.8,69.3,10.8,74.1h0s0,0,0,.1c0,.1-.1.2-.1.3h.3c2.3,5,21,42,61.3,42s59-37.1,61.3-41.9h.3c0-.1,0-.3-.1-.4"/>
</svg>