<?xml version="1.0" encoding="UTF-8"?>
<svg id="Layer_1" xmlns="http://www.w3.org/2000/svg" version="1.1" viewBox="0 0 144 144">
  <!-- Generator: Adobe Illustrator 29.4.0, SVG Export Plug-In . SVG Version: 2.1.0 Build 152)  -->
  <defs>
    <style>
      .st0 {
        fill: #231f20;
      }

      .st1 {
        fill: #00b1eb;
      }
    </style>
  </defs>
  <circle class="st1" cx="72" cy="72" r="72"/>
  <path class="st0" d="M44.8,109.7c3-2.6,12-1.6,20.1,2.3,8.1,3.9,12.2,9.1,9.2,11.7-3,2.6-12,1.6-20.2-2.3-8.1-3.9-12.2-9.1-9.2-11.7M123,31C28.7,32,14.6,79.8,21,100c5.4,16.9,26.4,25.1,35.4,27.4,11.3,2.9,27.4,1,34.2-1.1,5.3-1.7,11.8-4.8,16-11.4,11.7-18.5-7.9-33.2-10.7-35.7-1.8-1.7-9.2-9.9-9.7-19.9-.6-10.3,6.6-22.1,36.8-28.3"/>
</svg>