<?xml version="1.0" encoding="UTF-8"?>
<svg id="Layer_1" data-name="Layer 1" xmlns="http://www.w3.org/2000/svg" viewBox="0 0 160 160">
  <defs>
    <style>
      .cls-1 {
        fill: #fcb912;
      }

      .cls-2 {
        fill: #fff;
      }
    </style>
  </defs>
  <path class="cls-1" d="M62.58,131.85c-.44,0-.9-.1-1.3-.32l-15.16-8.47-15.15,8.47c-.4.22-.84.32-1.3.32-.55,0-1.09-.17-1.57-.5-.84-.61-1.25-1.66-1.03-2.68l3.35-17.02-12.73-11.8c-.76-.69-1.03-1.8-.72-2.78.32-.99,1.19-1.68,2.21-1.81l17.23-2.08,7.3-15.74c.43-.93,1.38-1.53,2.41-1.53s1.99.6,2.42,1.53l7.3,15.74,17.21,2.08c1.03.13,1.91.82,2.23,1.81.32.99.02,2.09-.72,2.78l-12.73,11.8,3.36,17.02c.2,1.02-.2,2.07-1.05,2.68-.48.33-1.02.5-1.57.5"/>
  <path class="cls-2" d="M46.13,78.57l7.91,17.07,18.71,2.25-13.81,12.82,3.65,18.47-16.46-9.16-16.46,9.16,3.65-18.47-13.81-12.82,18.71-2.25,7.91-17.07ZM46.13,73.24c-2.07,0-3.96,1.2-4.84,3.09l-6.66,14.38-15.75,1.91c-2.06.24-3.77,1.67-4.43,3.64-.64,1.98-.08,4.14,1.44,5.55l11.63,10.8-3.06,15.57c-.4,2.02.41,4.1,2.1,5.32.93.68,2.02,1.02,3.11,1.02.91,0,1.78-.22,2.6-.67l13.86-7.72,13.86,7.72c.82.45,1.69.67,2.6.67,1.09,0,2.18-.34,3.11-1.02,1.69-1.22,2.5-3.3,2.1-5.32l-3.06-15.57,11.63-10.8c1.52-1.41,2.08-3.57,1.44-5.55-.66-1.97-2.38-3.4-4.43-3.64l-15.75-1.91-6.66-14.38c-.89-1.89-2.77-3.09-4.84-3.09"/>
  <path class="cls-1" d="M130.31,131.85c-.44,0-.9-.1-1.3-.32l-15.16-8.47-15.14,8.47c-.41.22-.85.32-1.3.32-.55,0-1.09-.17-1.57-.5-.83-.61-1.24-1.66-1.05-2.68l3.35-17.02-12.73-11.8c-.76-.69-1.03-1.8-.72-2.78.32-.99,1.19-1.68,2.21-1.81l17.22-2.08,7.31-15.74c.43-.93,1.38-1.53,2.41-1.53s1.99.6,2.42,1.53l7.31,15.74,17.2,2.08c1.06.13,1.91.84,2.23,1.81.32.99.05,2.09-.72,2.78l-12.73,11.8,3.36,17.02c.2,1.02-.2,2.07-1.05,2.68-.48.33-1.02.5-1.57.5"/>
  <path class="cls-2" d="M113.87,78.57l7.91,17.07,18.71,2.25-13.81,12.82,3.64,18.47-16.45-9.16-16.46,9.16,3.65-18.47-13.81-12.82,18.71-2.25,7.91-17.07ZM113.87,73.24c-2.07,0-3.96,1.2-4.84,3.09l-6.66,14.38-15.74,1.91c-2.07.24-3.79,1.67-4.44,3.64-.64,1.98-.08,4.14,1.44,5.55l11.63,10.8-3.06,15.57c-.4,2.02.41,4.1,2.1,5.32.93.68,2.02,1.02,3.11,1.02.91,0,1.78-.22,2.6-.67l13.86-7.72,13.86,7.72c.82.45,1.69.67,2.59.67,1.1,0,2.19-.34,3.13-1.02,1.69-1.22,2.5-3.3,2.1-5.32l-3.06-15.57,11.63-10.8c1.52-1.41,2.08-3.57,1.44-5.55-.66-1.97-2.38-3.4-4.43-3.64l-15.75-1.91-6.66-14.38c-.89-1.89-2.77-3.09-4.84-3.09"/>
  <path class="cls-1" d="M61.98,83.6c-.55,0-1.09-.17-1.57-.5-.84-.61-1.25-1.66-1.05-2.67l3.34-17.03-12.71-11.8c-.76-.69-1.03-1.8-.72-2.78.32-.99,1.19-1.68,2.21-1.81l17.23-2.08,7.3-15.74c.43-.93,1.38-1.53,2.42-1.53s1.98.6,2.41,1.53l7.3,15.74,17.21,2.08c1.03.13,1.91.82,2.21,1.81.34.99.05,2.09-.72,2.78l-12.71,11.8,3.36,17.03c.2,1.01-.2,2.06-1.05,2.67-.48.33-1.02.5-1.57.5-.44,0-.89-.1-1.3-.33l-15.15-8.46-15.16,8.46c-.4.23-.85.33-1.3.33"/>
  <path class="cls-2" d="M78.43,30.32l7.91,17.07,18.71,2.25-13.81,12.82,3.65,18.47-16.46-9.16-16.45,9.16,3.64-18.47-13.81-12.82,18.71-2.25,7.91-17.07ZM78.43,24.99c-2.07,0-3.96,1.2-4.84,3.09l-6.66,14.38-15.75,1.91c-2.06.24-3.77,1.67-4.43,3.64-.64,1.98-.08,4.14,1.44,5.55l11.63,10.8-3.06,15.57c-.4,2.02.41,4.1,2.1,5.32.93.68,2.02,1.02,3.13,1.02.9,0,1.77-.22,2.59-.67l13.86-7.72,13.86,7.72c.82.45,1.69.67,2.6.67,1.09,0,2.18-.34,3.11-1.02,1.69-1.22,2.5-3.3,2.1-5.32l-3.06-15.57,11.63-10.8c1.52-1.41,2.08-3.57,1.44-5.55-.66-1.97-2.38-3.4-4.43-3.64l-15.75-1.91-6.66-14.38c-.89-1.89-2.77-3.09-4.84-3.09"/>
</svg>