<?xml version="1.0" encoding="UTF-8"?>
<svg id="Layer_1" data-name="Layer 1" xmlns="http://www.w3.org/2000/svg" viewBox="0 0 160 160">
  <defs>
    <style>
      .cls-1 {
        fill: #fcb912;
      }

      .cls-2 {
        fill: #fff;
      }
    </style>
  </defs>
  <path class="cls-1" d="M61.27,111.27c-.56,0-1.11-.16-1.58-.51-.85-.61-1.26-1.66-1.06-2.68l3.85-19.58-14.62-13.57c-.76-.7-1.06-1.8-.73-2.8.32-.99,1.18-1.72,2.23-1.84l19.81-2.39,8.39-18.09c.44-.94,1.39-1.55,2.44-1.55s2,.6,2.43,1.55l8.38,18.09,19.81,2.39c1.05.13,1.91.85,2.24,1.84.32,1,.03,2.09-.73,2.8l-14.63,13.57,3.86,19.58c.19,1.02-.22,2.07-1.06,2.68-.48.35-1.03.51-1.58.51-.45,0-.91-.1-1.32-.34l-17.41-9.72-17.44,9.72c-.41.24-.85.34-1.31.34"/>
  <path class="cls-2" d="M80,45.55c-2.09,0-3.99,1.22-4.88,3.11l-7.75,16.74-18.32,2.21c-2.08.25-3.82,1.68-4.47,3.67-.65,2-.08,4.18,1.45,5.6l13.53,12.55-3.57,18.11c-.4,2.06.42,4.15,2.11,5.39.94.67,2.05,1.02,3.16,1.02.9,0,1.8-.23,2.61-.68l16.12-8.98,16.12,8.98c.82.45,1.72.68,2.61.68,1.11,0,2.22-.35,3.16-1.02,1.69-1.24,2.51-3.33,2.11-5.39l-3.57-18.11,13.53-12.55c1.53-1.42,2.1-3.6,1.45-5.6-.65-1.99-2.39-3.42-4.47-3.67l-18.32-2.21-7.75-16.74c-.89-1.9-2.78-3.11-4.88-3.11M80,50.93l9.02,19.46,21.29,2.57-15.72,14.58,4.14,21.04-18.73-10.43-18.73,10.43,4.14-21.04-15.72-14.58,21.29-2.57,9.02-19.46Z"/>
</svg>