<?xml version="1.0" encoding="UTF-8"?>
<svg id="Layer_1" data-name="Layer 1" xmlns="http://www.w3.org/2000/svg" viewBox="0 0 160 160">
  <defs>
    <style>
      .cls-1 {
        fill: #fcb912;
      }
    </style>
  </defs>
  <path class="cls-1" d="M113.61,71.03c-1.08-3.42-3.97-5.9-7.43-6.33l-12.7-1.58-5.36-12.04c-1.47-3.27-4.64-5.38-8.1-5.38s-6.65,2.1-8.1,5.38l-5.39,12.04-12.7,1.58c-3.46.43-6.35,2.91-7.43,6.33-1.07,3.44-.13,7.21,2.43,9.66l9.37,9.02-2.47,13.03c-.67,3.53.69,7.16,3.51,9.29,1.56,1.17,3.4,1.77,5.25,1.77,1.49,0,2.99-.39,4.34-1.17l11.18-6.47,11.16,6.47c1.35.78,2.85,1.17,4.34,1.17,1.86,0,3.69-.6,5.26-1.77,2.81-2.13,4.18-5.75,3.51-9.29l-2.48-13.03,9.38-9.02c2.55-2.46,3.49-6.22,2.42-9.66M89.63,85.08l2.73,14.4-12.34-7.15-12.36,7.15,2.72-14.4-10.35-9.99,14.04-1.74,5.96-13.31,5.93,13.31,14.05,1.74-10.37,9.99Z"/>
</svg>