<?xml version="1.0" encoding="UTF-8"?>
<svg id="Layer_1" data-name="Layer 1" xmlns="http://www.w3.org/2000/svg" viewBox="0 0 160 160">
  <defs>
    <style>
      .cls-1 {
        fill: #fcb912;
      }
    </style>
  </defs>
  <path class="cls-1" d="M79.91,91.78l9.4,9.06-2.48,13.05c-.67,3.57.72,7.19,3.53,9.33,1.57,1.18,3.41,1.77,5.27,1.77,1.5,0,3-.38,4.36-1.18l11.21-6.47,11.22,6.47c1.35.81,2.85,1.18,4.36,1.18,1.85,0,3.71-.59,5.26-1.77,2.83-2.14,4.21-5.76,3.53-9.33l-2.48-13.05,9.4-9.06c2.57-2.47,3.51-6.25,2.42-9.7-1.08-3.44-3.98-5.93-7.44-6.37l-12.74-1.59-5.4-12.08c-1.47-3.28-4.65-5.4-8.14-5.4s-6.66,2.11-8.14,5.4l-5.39,12.08-12.75,1.59c-3.47.43-6.37,2.92-7.44,6.37-1.08,3.44-.15,7.23,2.42,9.7M91.15,86.15l14.09-1.76,5.97-13.37,5.98,13.37,14.08,1.76-10.4,10.02,2.74,14.44-12.4-7.16-12.4,7.16,2.74-14.44-10.4-10.02Z"/>
  <path class="cls-1" d="M17.48,69.65l9.4,9.06-2.48,13.05c-.67,3.57.72,7.19,3.53,9.33,1.57,1.18,3.41,1.77,5.27,1.77,1.5,0,3-.38,4.36-1.18l11.21-6.47,11.22,6.47c1.35.81,2.85,1.18,4.36,1.18,1.85,0,3.71-.59,5.26-1.77,2.83-2.14,4.21-5.76,3.53-9.33l-2.48-13.05,9.4-9.06c2.57-2.47,3.51-6.25,2.42-9.7-1.08-3.44-3.98-5.93-7.44-6.37l-12.74-1.59-5.4-12.08c-1.47-3.28-4.65-5.4-8.14-5.4s-6.66,2.11-8.14,5.4l-5.39,12.08-12.75,1.59c-3.47.43-6.37,2.92-7.44,6.37-1.08,3.44-.15,7.23,2.42,9.7M28.73,64.03l14.09-1.76,5.97-13.37,5.98,13.37,14.08,1.76-10.4,10.02,2.74,14.44-12.4-7.16-12.4,7.16,2.74-14.44-10.4-10.02Z"/>
</svg>