<?xml version="1.0" encoding="UTF-8"?>
<svg id="Layer_1" xmlns="http://www.w3.org/2000/svg" xmlns:xlink="http://www.w3.org/1999/xlink" version="1.1" viewBox="0 0 121.99 76.26">
  <!-- Generator: Adobe Illustrator 30.1.0, SVG Export Plug-In . SVG Version: 2.1.1 Build 136)  -->
  <defs>
    <style>
      .st0 {
        fill: none;
      }

      .st1 {
        fill: #5e6568;
      }

      .st2 {
        fill: url(#linear-gradient2);
      }

      .st3 {
        fill: url(#linear-gradient1);
      }

      .st4 {
        fill: url(#linear-gradient3);
      }

      .st5 {
        opacity: .55;
      }

      .st5, .st6 {
        mix-blend-mode: multiply;
      }

      .st6 {
        opacity: .18;
      }

      .st7 {
        fill: #bcbec0;
      }

      .st8 {
        fill: url(#radial-gradient);
      }

      .st9 {
        fill: url(#linear-gradient);
      }

      .st10 {
        isolation: isolate;
      }

      .st11 {
        clip-path: url(#clippath-17);
      }

      .st12 {
        clip-path: url(#clippath-19);
      }

      .st13 {
        clip-path: url(#clippath-11);
      }

      .st14 {
        clip-path: url(#clippath-16);
      }

      .st15 {
        clip-path: url(#clippath-18);
      }

      .st16 {
        clip-path: url(#clippath-10);
      }

      .st17 {
        clip-path: url(#clippath-15);
      }

      .st18 {
        clip-path: url(#clippath-13);
      }

      .st19 {
        clip-path: url(#clippath-14);
      }

      .st20 {
        clip-path: url(#clippath-12);
      }

      .st21 {
        clip-path: url(#clippath-61);
      }

      .st22 {
        clip-path: url(#clippath-67);
      }

      .st23 {
        clip-path: url(#clippath-68);
      }

      .st24 {
        clip-path: url(#clippath-60);
      }

      .st25 {
        clip-path: url(#clippath-65);
      }

      .st26 {
        clip-path: url(#clippath-62);
      }

      .st27 {
        clip-path: url(#clippath-64);
      }

      .st28 {
        clip-path: url(#clippath-66);
      }

      .st29 {
        clip-path: url(#clippath-63);
      }

      .st30 {
        clip-path: url(#clippath-50);
      }

      .st31 {
        clip-path: url(#clippath-55);
      }

      .st32 {
        clip-path: url(#clippath-52);
      }

      .st33 {
        clip-path: url(#clippath-57);
      }

      .st34 {
        clip-path: url(#clippath-54);
      }

      .st35 {
        clip-path: url(#clippath-56);
      }

      .st36 {
        clip-path: url(#clippath-53);
      }

      .st37 {
        clip-path: url(#clippath-51);
      }

      .st38 {
        clip-path: url(#clippath-58);
      }

      .st39 {
        clip-path: url(#clippath-59);
      }

      .st40 {
        clip-path: url(#clippath-31);
      }

      .st41 {
        clip-path: url(#clippath-32);
      }

      .st42 {
        clip-path: url(#clippath-33);
      }

      .st43 {
        clip-path: url(#clippath-34);
      }

      .st44 {
        clip-path: url(#clippath-35);
      }

      .st45 {
        clip-path: url(#clippath-39);
      }

      .st46 {
        clip-path: url(#clippath-30);
      }

      .st47 {
        clip-path: url(#clippath-36);
      }

      .st48 {
        clip-path: url(#clippath-37);
      }

      .st49 {
        clip-path: url(#clippath-38);
      }

      .st50 {
        clip-path: url(#clippath-27);
      }

      .st51 {
        clip-path: url(#clippath-29);
      }

      .st52 {
        clip-path: url(#clippath-26);
      }

      .st53 {
        clip-path: url(#clippath-28);
      }

      .st54 {
        clip-path: url(#clippath-20);
      }

      .st55 {
        clip-path: url(#clippath-21);
      }

      .st56 {
        clip-path: url(#clippath-22);
      }

      .st57 {
        clip-path: url(#clippath-23);
      }

      .st58 {
        clip-path: url(#clippath-24);
      }

      .st59 {
        clip-path: url(#clippath-25);
      }

      .st60 {
        clip-path: url(#clippath-69);
      }

      .st61 {
        clip-path: url(#clippath-41);
      }

      .st62 {
        clip-path: url(#clippath-42);
      }

      .st63 {
        clip-path: url(#clippath-43);
      }

      .st64 {
        clip-path: url(#clippath-44);
      }

      .st65 {
        clip-path: url(#clippath-45);
      }

      .st66 {
        clip-path: url(#clippath-49);
      }

      .st67 {
        clip-path: url(#clippath-40);
      }

      .st68 {
        clip-path: url(#clippath-46);
      }

      .st69 {
        clip-path: url(#clippath-47);
      }

      .st70 {
        clip-path: url(#clippath-48);
      }

      .st71 {
        clip-path: url(#clippath-1);
      }

      .st72 {
        clip-path: url(#clippath-3);
      }

      .st73 {
        clip-path: url(#clippath-4);
      }

      .st74 {
        clip-path: url(#clippath-2);
      }

      .st75 {
        clip-path: url(#clippath-7);
      }

      .st76 {
        clip-path: url(#clippath-6);
      }

      .st77 {
        clip-path: url(#clippath-9);
      }

      .st78 {
        clip-path: url(#clippath-8);
      }

      .st79 {
        clip-path: url(#clippath-5);
      }

      .st80 {
        fill: #fff;
      }

      .st81 {
        fill: #8e9295;
      }

      .st82, .st83 {
        mix-blend-mode: overlay;
      }

      .st83 {
        opacity: .96;
      }

      .st84 {
        fill: #00acd9;
      }

      .st85 {
        clip-path: url(#clippath);
      }

      .st86 {
        fill: #12103d;
      }
    </style>
    <clipPath id="clippath">
      <rect class="st0" x="0" width="122" height="76.26"/>
    </clipPath>
    <clipPath id="clippath-1">
      <rect class="st0" x="4.11" y="10.79" width="115.62" height="60.26"/>
    </clipPath>
    <clipPath id="clippath-2">
      <rect class="st0" x="4.11" y="10.79" width="115.62" height="60.26"/>
    </clipPath>
    <clipPath id="clippath-3">
      <rect class="st0" x="4.11" y="10.79" width="115.62" height="60.26"/>
    </clipPath>
    <clipPath id="clippath-4">
      <polygon class="st0" points="19.37 26.83 4.11 56.07 31.63 51.49 20.74 71.05 100.7 55.07 119.72 23.56 85.21 31.28 98.36 10.79 19.37 26.83"/>
    </clipPath>
    <radialGradient id="radial-gradient" cx="-975.22" cy="-199.26" fx="-975.22" fy="-199.26" r="1" gradientTransform="translate(47448.49 5915.92) scale(48.59 29.48)" gradientUnits="userSpaceOnUse">
      <stop offset="0" stop-color="#0c294a"/>
      <stop offset="0" stop-color="#0c294a"/>
      <stop offset=".88" stop-color="#0c294a"/>
      <stop offset="1" stop-color="#0c294a"/>
    </radialGradient>
    <clipPath id="clippath-5">
      <rect class="st0" x="87.49" y="26.07" width="28.72" height="18.1"/>
    </clipPath>
    <clipPath id="clippath-6">
      <polygon class="st0" points="87.49 32.36 105.03 44.16 116.22 26.07 87.49 32.36"/>
    </clipPath>
    <linearGradient id="linear-gradient" x1="-995.01" y1="-202.68" x2="-994.01" y2="-202.68" gradientTransform="translate(77754.76 15856.59) scale(78.06)" gradientUnits="userSpaceOnUse">
      <stop offset="0" stop-color="#f7f7f8"/>
      <stop offset="1" stop-color="#fff"/>
    </linearGradient>
    <clipPath id="clippath-7">
      <rect class="st0" x="4.11" y="10.79" width="115.62" height="60.26"/>
    </clipPath>
    <clipPath id="clippath-8">
      <path class="st0" d="M19.97,27.68l76.47-15.53-13.15,20.48,34.51-7.71-17.7,29.3-77.43,15.46,10.89-19.56-27.52,4.58s13.93-27.02,13.93-27.02ZM19.37,26.83l-15.26,29.23,27.52-4.58-10.89,19.56,79.96-15.98,19.03-31.51-34.51,7.71,13.15-20.48L19.37,26.83Z"/>
    </clipPath>
    <linearGradient id="linear-gradient1" x1="-990.82" y1="-202.51" x2="-989.82" y2="-202.51" gradientTransform="translate(-75730.58 15539.39) rotate(-180) scale(76.53 -76.53)" gradientUnits="userSpaceOnUse">
      <stop offset="0" stop-color="#fff"/>
      <stop offset=".47" stop-color="#fff"/>
      <stop offset=".98" stop-color="#fff"/>
      <stop offset=".98" stop-color="#fff"/>
      <stop offset="1" stop-color="#fff"/>
    </linearGradient>
    <clipPath id="clippath-9">
      <rect class="st0" x="63.87" y="13.22" width="30.9" height="13.45"/>
    </clipPath>
    <clipPath id="clippath-10">
      <polygon class="st0" points="63.87 19.65 85.92 26.67 94.77 13.22 63.87 19.65"/>
    </clipPath>
    <linearGradient id="linear-gradient2" x1="-995.34" y1="-199.92" x2="-994.34" y2="-199.92" gradientTransform="translate(63996.55 12860.56) scale(64.23)" gradientUnits="userSpaceOnUse">
      <stop offset="0" stop-color="#f7f7f8"/>
      <stop offset="1" stop-color="#fff"/>
    </linearGradient>
    <clipPath id="clippath-11">
      <polygon class="st0" points="17.17 21.13 4.69 20.07 29.08 43.86 16.09 43.45 44.23 68.81 31.32 49.89 43.2 51.27 18.58 28.88 33.44 29.96 7.46 6.4 17.17 21.13"/>
    </clipPath>
    <clipPath id="clippath-12">
      <polygon class="st0" points="17.17 21.13 4.69 20.07 29.08 43.86 16.09 43.45 44.23 68.81 31.32 49.89 43.2 51.27 18.58 28.88 33.44 29.96 7.46 6.4 17.17 21.13"/>
    </clipPath>
    <clipPath id="clippath-13">
      <polygon class="st0" points="17.17 21.13 4.69 20.07 29.08 43.86 16.09 43.45 44.23 68.81 31.32 49.89 43.2 51.27 18.58 28.88 33.44 29.96 7.46 6.4 17.17 21.13"/>
    </clipPath>
    <clipPath id="clippath-14">
      <polygon class="st0" points="17.17 21.13 4.69 20.07 29.08 43.86 16.09 43.45 44.23 68.81 31.32 49.89 43.2 51.27 18.58 28.88 33.44 29.96 7.46 6.4 17.17 21.13"/>
    </clipPath>
    <clipPath id="clippath-15">
      <polygon class="st0" points="17.17 21.13 4.69 20.07 29.08 43.86 16.09 43.45 44.23 68.81 31.32 49.89 43.2 51.27 18.58 28.88 33.44 29.96 7.46 6.4 17.17 21.13"/>
    </clipPath>
    <clipPath id="clippath-16">
      <polygon class="st0" points="17.17 21.13 4.69 20.07 29.08 43.86 16.09 43.45 44.23 68.81 31.32 49.89 43.2 51.27 18.58 28.88 33.44 29.96 7.46 6.4 17.17 21.13"/>
    </clipPath>
    <clipPath id="clippath-17">
      <polygon class="st0" points="17.17 21.13 4.69 20.07 29.08 43.86 16.09 43.45 44.23 68.81 31.32 49.89 43.2 51.27 18.58 28.88 33.44 29.96 7.46 6.4 17.17 21.13"/>
    </clipPath>
    <clipPath id="clippath-18">
      <polygon class="st0" points="17.17 21.13 4.69 20.07 29.08 43.86 16.09 43.45 44.23 68.81 31.32 49.89 43.2 51.27 18.58 28.88 33.44 29.96 7.46 6.4 17.17 21.13"/>
    </clipPath>
    <clipPath id="clippath-19">
      <polygon class="st0" points="17.17 21.13 4.69 20.07 29.08 43.86 16.09 43.45 44.23 68.81 31.32 49.89 43.2 51.27 18.58 28.88 33.44 29.96 7.46 6.4 17.17 21.13"/>
    </clipPath>
    <clipPath id="clippath-20">
      <polygon class="st0" points="17.17 21.13 4.69 20.07 29.08 43.86 16.09 43.45 44.23 68.81 31.32 49.89 43.2 51.27 18.58 28.88 33.44 29.96 7.46 6.4 17.17 21.13"/>
    </clipPath>
    <clipPath id="clippath-21">
      <polygon class="st0" points="17.17 21.13 4.69 20.07 29.08 43.86 16.09 43.45 44.23 68.81 31.32 49.89 43.2 51.27 18.58 28.88 33.44 29.96 7.46 6.4 17.17 21.13"/>
    </clipPath>
    <clipPath id="clippath-22">
      <polygon class="st0" points="17.17 21.13 4.69 20.07 29.08 43.86 16.09 43.45 44.23 68.81 31.32 49.89 43.2 51.27 18.58 28.88 33.44 29.96 7.46 6.4 17.17 21.13"/>
    </clipPath>
    <clipPath id="clippath-23">
      <polygon class="st0" points="17.17 21.13 4.69 20.07 29.08 43.86 16.09 43.45 44.23 68.81 31.32 49.89 43.2 51.27 18.58 28.88 33.44 29.96 7.46 6.4 17.17 21.13"/>
    </clipPath>
    <clipPath id="clippath-24">
      <polygon class="st0" points="17.17 21.13 4.69 20.07 29.08 43.86 16.09 43.45 44.23 68.81 31.32 49.89 43.2 51.27 18.58 28.88 33.44 29.96 7.46 6.4 17.17 21.13"/>
    </clipPath>
    <clipPath id="clippath-25">
      <polygon class="st0" points="17.17 21.13 4.69 20.07 29.08 43.86 16.09 43.45 44.23 68.81 31.32 49.89 43.2 51.27 18.58 28.88 33.44 29.96 7.46 6.4 17.17 21.13"/>
    </clipPath>
    <clipPath id="clippath-26">
      <polygon class="st0" points="17.17 21.13 4.69 20.07 29.08 43.86 16.09 43.45 44.23 68.81 31.32 49.89 43.2 51.27 18.58 28.88 33.44 29.96 7.46 6.4 17.17 21.13"/>
    </clipPath>
    <clipPath id="clippath-27">
      <polygon class="st0" points="17.17 21.13 4.69 20.07 29.08 43.86 16.09 43.45 44.23 68.81 31.32 49.89 43.2 51.27 18.58 28.88 33.44 29.96 7.46 6.4 17.17 21.13"/>
    </clipPath>
    <clipPath id="clippath-28">
      <polygon class="st0" points="17.17 21.13 4.69 20.07 29.08 43.86 16.09 43.45 44.23 68.81 31.32 49.89 43.2 51.27 18.58 28.88 33.44 29.96 7.46 6.4 17.17 21.13"/>
    </clipPath>
    <clipPath id="clippath-29">
      <polygon class="st0" points="17.17 21.13 4.69 20.07 29.08 43.86 16.09 43.45 44.23 68.81 31.32 49.89 43.2 51.27 18.58 28.88 33.44 29.96 7.46 6.4 17.17 21.13"/>
    </clipPath>
    <clipPath id="clippath-30">
      <polygon class="st0" points="17.17 21.13 4.69 20.07 29.08 43.86 16.09 43.45 44.23 68.81 31.32 49.89 43.2 51.27 18.58 28.88 33.44 29.96 7.46 6.4 17.17 21.13"/>
    </clipPath>
    <clipPath id="clippath-31">
      <polygon class="st0" points="17.17 21.13 4.69 20.07 29.08 43.86 16.09 43.45 44.23 68.81 31.32 49.89 43.2 51.27 18.58 28.88 33.44 29.96 7.46 6.4 17.17 21.13"/>
    </clipPath>
    <clipPath id="clippath-32">
      <polygon class="st0" points="17.17 21.13 4.69 20.07 29.08 43.86 16.09 43.45 44.23 68.81 31.32 49.89 43.2 51.27 18.58 28.88 33.44 29.96 7.46 6.4 17.17 21.13"/>
    </clipPath>
    <clipPath id="clippath-33">
      <polygon class="st0" points="17.17 21.13 4.69 20.07 29.08 43.86 16.09 43.45 44.23 68.81 31.32 49.89 43.2 51.27 18.58 28.88 33.44 29.96 7.46 6.4 17.17 21.13"/>
    </clipPath>
    <clipPath id="clippath-34">
      <polygon class="st0" points="17.17 21.13 4.69 20.07 29.08 43.86 16.09 43.45 44.23 68.81 31.32 49.89 43.2 51.27 18.58 28.88 33.44 29.96 7.46 6.4 17.17 21.13"/>
    </clipPath>
    <clipPath id="clippath-35">
      <polygon class="st0" points="17.17 21.13 4.69 20.07 29.08 43.86 16.09 43.45 44.23 68.81 31.32 49.89 43.2 51.27 18.58 28.88 33.44 29.96 7.46 6.4 17.17 21.13"/>
    </clipPath>
    <clipPath id="clippath-36">
      <polygon class="st0" points="17.17 21.13 4.69 20.07 29.08 43.86 16.09 43.45 44.23 68.81 31.32 49.89 43.2 51.27 18.58 28.88 33.44 29.96 7.46 6.4 17.17 21.13"/>
    </clipPath>
    <clipPath id="clippath-37">
      <polygon class="st0" points="17.17 21.13 4.69 20.07 29.08 43.86 16.09 43.45 44.23 68.81 31.32 49.89 43.2 51.27 18.58 28.88 33.44 29.96 7.46 6.4 17.17 21.13"/>
    </clipPath>
    <clipPath id="clippath-38">
      <polygon class="st0" points="17.17 21.13 4.69 20.07 29.08 43.86 16.09 43.45 44.23 68.81 31.32 49.89 43.2 51.27 18.58 28.88 33.44 29.96 7.46 6.4 17.17 21.13"/>
    </clipPath>
    <clipPath id="clippath-39">
      <polygon class="st0" points="17.17 21.13 4.69 20.07 29.08 43.86 16.09 43.45 44.23 68.81 31.32 49.89 43.2 51.27 18.58 28.88 33.44 29.96 7.46 6.4 17.17 21.13"/>
    </clipPath>
    <clipPath id="clippath-40">
      <polygon class="st0" points="17.17 21.13 4.69 20.07 29.08 43.86 16.09 43.45 44.23 68.81 31.32 49.89 43.2 51.27 18.58 28.88 33.44 29.96 7.46 6.4 17.17 21.13"/>
    </clipPath>
    <clipPath id="clippath-41">
      <polygon class="st0" points="17.17 21.13 4.69 20.07 29.08 43.86 16.09 43.45 44.23 68.81 31.32 49.89 43.2 51.27 18.58 28.88 33.44 29.96 7.46 6.4 17.17 21.13"/>
    </clipPath>
    <clipPath id="clippath-42">
      <polygon class="st0" points="17.17 21.13 4.69 20.07 29.08 43.86 16.09 43.45 44.23 68.81 31.32 49.89 43.2 51.27 18.58 28.88 33.44 29.96 7.46 6.4 17.17 21.13"/>
    </clipPath>
    <clipPath id="clippath-43">
      <polygon class="st0" points="17.17 21.13 4.69 20.07 29.08 43.86 16.09 43.45 44.23 68.81 31.32 49.89 43.2 51.27 18.58 28.88 33.44 29.96 7.46 6.4 17.17 21.13"/>
    </clipPath>
    <clipPath id="clippath-44">
      <polygon class="st0" points="17.17 21.13 4.69 20.07 29.08 43.86 16.09 43.45 44.23 68.81 31.32 49.89 43.2 51.27 18.58 28.88 33.44 29.96 7.46 6.4 17.17 21.13"/>
    </clipPath>
    <clipPath id="clippath-45">
      <polygon class="st0" points="17.17 21.13 4.69 20.07 29.08 43.86 16.09 43.45 44.23 68.81 31.32 49.89 43.2 51.27 18.58 28.88 33.44 29.96 7.46 6.4 17.17 21.13"/>
    </clipPath>
    <clipPath id="clippath-46">
      <polygon class="st0" points="17.17 21.13 4.69 20.07 29.08 43.86 16.09 43.45 44.23 68.81 31.32 49.89 43.2 51.27 18.58 28.88 33.44 29.96 7.46 6.4 17.17 21.13"/>
    </clipPath>
    <clipPath id="clippath-47">
      <polygon class="st0" points="17.17 21.13 4.69 20.07 29.08 43.86 16.09 43.45 44.23 68.81 31.32 49.89 43.2 51.27 18.58 28.88 33.44 29.96 7.46 6.4 17.17 21.13"/>
    </clipPath>
    <clipPath id="clippath-48">
      <polygon class="st0" points="17.17 21.13 4.69 20.07 29.08 43.86 16.09 43.45 44.23 68.81 31.32 49.89 43.2 51.27 18.58 28.88 33.44 29.96 7.46 6.4 17.17 21.13"/>
    </clipPath>
    <clipPath id="clippath-49">
      <polygon class="st0" points="17.17 21.13 4.69 20.07 29.08 43.86 16.09 43.45 44.23 68.81 31.32 49.89 43.2 51.27 18.58 28.88 33.44 29.96 7.46 6.4 17.17 21.13"/>
    </clipPath>
    <clipPath id="clippath-50">
      <polygon class="st0" points="17.17 21.13 4.69 20.07 29.08 43.86 16.09 43.45 44.23 68.81 31.32 49.89 43.2 51.27 18.58 28.88 33.44 29.96 7.46 6.4 17.17 21.13"/>
    </clipPath>
    <clipPath id="clippath-51">
      <polygon class="st0" points="17.17 21.13 4.69 20.07 29.08 43.86 16.09 43.45 44.23 68.81 31.32 49.89 43.2 51.27 18.58 28.88 33.44 29.96 7.46 6.4 17.17 21.13"/>
    </clipPath>
    <clipPath id="clippath-52">
      <polygon class="st0" points="17.17 21.13 4.69 20.07 29.08 43.86 16.09 43.45 44.23 68.81 31.32 49.89 43.2 51.27 18.58 28.88 33.44 29.96 7.46 6.4 17.17 21.13"/>
    </clipPath>
    <clipPath id="clippath-53">
      <polygon class="st0" points="17.17 21.13 4.69 20.07 29.08 43.86 16.09 43.45 44.23 68.81 31.32 49.89 43.2 51.27 18.58 28.88 33.44 29.96 7.46 6.4 17.17 21.13"/>
    </clipPath>
    <clipPath id="clippath-54">
      <polygon class="st0" points="17.17 21.13 4.69 20.07 29.08 43.86 16.09 43.45 44.23 68.81 31.32 49.89 43.2 51.27 18.58 28.88 33.44 29.96 7.46 6.4 17.17 21.13"/>
    </clipPath>
    <clipPath id="clippath-55">
      <polygon class="st0" points="17.17 21.13 4.69 20.07 29.08 43.86 16.09 43.45 44.23 68.81 31.32 49.89 43.2 51.27 18.58 28.88 33.44 29.96 7.46 6.4 17.17 21.13"/>
    </clipPath>
    <clipPath id="clippath-56">
      <polygon class="st0" points="17.17 21.13 4.69 20.07 29.08 43.86 16.09 43.45 44.23 68.81 31.32 49.89 43.2 51.27 18.58 28.88 33.44 29.96 7.46 6.4 17.17 21.13"/>
    </clipPath>
    <clipPath id="clippath-57">
      <polygon class="st0" points="17.17 21.13 4.69 20.07 29.08 43.86 16.09 43.45 44.23 68.81 31.32 49.89 43.2 51.27 18.58 28.88 33.44 29.96 7.46 6.4 17.17 21.13"/>
    </clipPath>
    <clipPath id="clippath-58">
      <polygon class="st0" points="17.17 21.13 4.69 20.07 29.08 43.86 16.09 43.45 44.23 68.81 31.32 49.89 43.2 51.27 18.58 28.88 33.44 29.96 7.46 6.4 17.17 21.13"/>
    </clipPath>
    <clipPath id="clippath-59">
      <polygon class="st0" points="17.17 21.13 4.69 20.07 29.08 43.86 16.09 43.45 44.23 68.81 31.32 49.89 43.2 51.27 18.58 28.88 33.44 29.96 7.46 6.4 17.17 21.13"/>
    </clipPath>
    <clipPath id="clippath-60">
      <polygon class="st0" points="17.17 21.13 4.69 20.07 29.08 43.86 16.09 43.45 44.23 68.81 31.32 49.89 43.2 51.27 18.58 28.88 33.44 29.96 7.46 6.4 17.17 21.13"/>
    </clipPath>
    <clipPath id="clippath-61">
      <polygon class="st0" points="17.17 21.13 4.69 20.07 29.08 43.86 16.09 43.45 44.23 68.81 31.32 49.89 43.2 51.27 18.58 28.88 33.44 29.96 7.46 6.4 17.17 21.13"/>
    </clipPath>
    <clipPath id="clippath-62">
      <polygon class="st0" points="17.17 21.13 4.69 20.07 29.08 43.86 16.09 43.45 44.23 68.81 31.32 49.89 43.2 51.27 18.58 28.88 33.44 29.96 7.46 6.4 17.17 21.13"/>
    </clipPath>
    <clipPath id="clippath-63">
      <polygon class="st0" points="17.17 21.13 4.69 20.07 29.08 43.86 16.09 43.45 44.23 68.81 31.32 49.89 43.2 51.27 18.58 28.88 33.44 29.96 7.46 6.4 17.17 21.13"/>
    </clipPath>
    <clipPath id="clippath-64">
      <polygon class="st0" points="17.17 21.13 4.69 20.07 29.08 43.86 16.09 43.45 44.23 68.81 31.32 49.89 43.2 51.27 18.58 28.88 33.44 29.96 7.46 6.4 17.17 21.13"/>
    </clipPath>
    <clipPath id="clippath-65">
      <polygon class="st0" points="17.17 21.13 4.69 20.07 29.08 43.86 16.09 43.45 44.23 68.81 31.32 49.89 43.2 51.27 18.58 28.88 33.44 29.96 7.46 6.4 17.17 21.13"/>
    </clipPath>
    <clipPath id="clippath-66">
      <polygon class="st0" points="17.17 21.13 4.69 20.07 29.08 43.86 16.09 43.45 44.23 68.81 31.32 49.89 43.2 51.27 18.58 28.88 33.44 29.96 7.46 6.4 17.17 21.13"/>
    </clipPath>
    <clipPath id="clippath-67">
      <rect class="st0" x="0" width="122" height="76.26"/>
    </clipPath>
    <clipPath id="clippath-68">
      <path class="st0" d="M18.64,36.4h5.7c1.05,0,1.56.45,1.56,1.39,0,.99-.5,1.45-1.59,1.45h-5.68v-2.84h.01ZM18.43,36.19v3.25h5.89c1.19,0,1.79-.56,1.79-1.66s-.6-1.59-1.77-1.59h-5.91ZM60.22,30.88h.08l2.1,5.64h-4.26l2.09-5.64h0ZM60.08,30.68l-2.24,6.05h4.86l-2.25-6.05h-.37ZM18.64,30.51h6.8v1.39c0,.83-.23,1.34-1.36,1.34h-5.44v-2.73ZM18.43,30.31v3.14h5.64c1.12,0,1.57-.45,1.57-1.55v-1.59h-7.21ZM34.87,27.33h3.97v11.73h9.38v3.61h-13.35v-15.35h0ZM34.67,27.12v15.76h13.76v-4.03h-9.38v-11.73h-4.38ZM57.6,27.33h5.32l5.99,15.35h-4l-.99-2.67h-7.29l-.99,2.67h-4.01l5.97-15.35ZM57.46,27.12l-6.13,15.76h4.45l.99-2.67h7.01l.99,2.67h4.45l-6.12-15.69-.03-.07s-5.61,0-5.61,0ZM98.78,33.13l3.8-5.8h3.53v1.89l-3.8,5.36,4.09,6.21v1.89h-3.64l-3.84-5.89-.03-.05h-4.05v5.93h-3.97v-15.35h3.97v5.8h3.94ZM102.47,27.12l-3.8,5.8h-3.62v-5.8h-4.38v15.76h4.38v-5.93h3.73l3.84,5.89.03.05h3.96v-2.15l-4.04-6.14,3.76-5.3v-2.16h-3.85v-.02ZM11.11,27.31h18.62c.06,1.19.06,2.02.06,3.78,0,1.51-.69,2.62-1.93,3.13l-.24.1.24.1c1.65.65,2.49,1.88,2.51,3.64,0,1.26-.4,2.34-1.19,3.14-.95.96-2.4,1.47-4.17,1.47h-9.86c-.02-1.97-.03-11.24-.03-11.34v-.1h-3.06c-.11-.46-.69-2.83-.96-3.91M10.84,27.11l.03.13c.28,1.11,1.01,4.11,1.01,4.11l.02.08h3.02c0,1.04,0,9.7.03,11.34v.1h10.06c1.83,0,3.33-.53,4.32-1.53.83-.83,1.26-1.97,1.25-3.28-.02-1.77-.84-3.03-2.42-3.74,1.18-.58,1.84-1.74,1.84-3.22,0-1.82,0-2.65-.07-3.89v-.1H10.84ZM71.96,27.38c3.9-.09,7.01-.08,8.69-.07h.82c1.53,0,2.74.43,3.58,1.28.91.91,1.39,2.28,1.39,3.97h-3.82v-.05c0-1.39-.6-2.04-1.9-2.04h-5.06v6.83c0,1.53.72,2.28,2.19,2.28h2.8c1.34,0,1.99-.67,1.99-2.04v-.59h3.79v1.15c0,2.83-2.07,4.55-5.68,4.72-1.17.06-1.89.07-3.08.02-3.61-.17-5.69-1.97-5.86-5.08-.1-2.18-.05-6.16.14-10.39M71.86,27.18h-.1v.1c-.19,4.27-.25,8.29-.14,10.5.17,3.23,2.32,5.1,6.05,5.27.53.02.96.03,1.38.03.54,0,1.06-.02,1.72-.05,3.73-.17,5.88-1.97,5.88-4.92v-1.35h-4.21v.8c0,1.27-.55,1.83-1.79,1.83h-2.8c-1.35,0-1.99-.66-1.99-2.08v-6.63h4.86c1.19,0,1.7.55,1.7,1.83v.26h4.23v-.16c0-1.77-.49-3.21-1.45-4.17-.88-.89-2.14-1.34-3.73-1.34h-2.95c-1.73,0-4.02.01-6.66.08Z"/>
    </clipPath>
    <linearGradient id="linear-gradient3" x1="-1023.29" y1="-160.11" x2="-1022.29" y2="-160.11" gradientTransform="translate(2617.27 -16309.19) rotate(-90) scale(15.98)" gradientUnits="userSpaceOnUse">
      <stop offset="0" stop-color="#4e5458"/>
      <stop offset=".19" stop-color="#4e5458"/>
      <stop offset=".33" stop-color="#6a7175"/>
      <stop offset=".53" stop-color="#8f969b"/>
      <stop offset=".87" stop-color="#4e5458"/>
      <stop offset="1" stop-color="#4e5458"/>
    </linearGradient>
    <clipPath id="clippath-69">
      <rect class="st0" x="0" width="122" height="76.26"/>
    </clipPath>
  </defs>
  <g class="st10">
    <g id="Layer_11" data-name="Layer_1">
      <g>
        <g class="st85">
          <g>
            <path class="st81" d="M121.09,27.02l-1.36-3.46-10.22,2.28v-1.92h-8.76l-2.51,3.83v-3.83h-4.84l6.32-9.69-1.36-3.46-26.1,5.3.28-1.06h-10.15l-1.57,1.61h-16.76l2.4-2.35-1.65.26c-.13.02-3.29.5-4.34.5h-2.63c-1.68,0-2.96.84-3.43,2.24-.3.91-.19,1.82.34,2.71l-2.04,2.17.13.78c.06.36.17.69.32.99h-5.01L2.88,1l-1.2.62,12.05,18.29-11.54-.98-.98.83,5.97,5.82,2.21,9.04h2.34c0,1.48.02,4.31.03,6.79l-7.66,14.67,1.36,3.46,21.25-3.52,1.59,1.43-7.56,13.59v.02l1.35,3.46,20.56-4.11,5.52,4.98,1.41-.29-3.64-5.35,13.55-2.71h3.71l.41-1.84,2,1.84h34.6l2.81-12.67h3.86l1.33-6.04,12.86-21.29.02-.02Z"/>
            <path class="st81" d="M120.23,22.61l-9.9,2.21v-1.71h-10.03l-1.24,1.89v-1.89h-4.14l5.72-8.77-1.77-4.49-25.47,5.17.22-.82h-11.57l-1.57,1.61h-14.4l2.79-2.73-4.18.65c-1.12.17-3.43.49-4.21.49h-2.63c-2.02,0-3.63,1.07-4.21,2.8-.31.93-.27,1.9.12,2.83l-1.93,2.04.2,1.18v.03h-3.57L3.01,0,.49,1.3l11.62,17.64-10.19-.86L0,19.72l6.44,6.29,2.31,9.43h2.16c0,1.28.01,3.22.03,5.76l-7.74,14.82,1.74,4.42,21.52-3.56.81.73-7.25,13.03-.19.34,1.76,4.46,20.83-4.16,5.52,4.98,3.02-.62-3.63-5.34,12.25-2.45h4.28l.24-1.1,1.19,1.09h35.58l2.81-12.67h3.86l1.44-6.56,13-21.53-1.77-4.49.03.02Z"/>
            <polygon points="5.47 59.52 29.42 55.56 20.74 71.05 22.1 74.5 62.77 66.37 63.52 64.69 65.25 65.88 102.06 58.52 103.09 54.03 104.92 53.79 121.09 27.02 119.72 23.56 89.19 30.39 99.73 14.24 98.36 10.79 19.37 26.83 4.11 56.07 5.47 59.52"/>
            <polygon class="st84" points="85.21 31.28 98.36 10.79 19.37 26.83 4.11 56.07 31.63 51.49 20.74 71.05 100.7 55.07 119.72 23.56 85.21 31.28"/>
            <g class="st5">
              <g class="st71">
                <g class="st74">
                  <polygon class="st86" points="85.21 31.28 98.36 10.79 19.37 26.83 4.11 56.07 31.63 51.49 20.74 71.05 100.7 55.07 119.72 23.56 85.21 31.28"/>
                </g>
              </g>
            </g>
            <g class="st6">
              <g class="st72">
                <g class="st73">
                  <rect class="st8" x="4.11" y="10.79" width="115.62" height="60.26"/>
                </g>
              </g>
            </g>
            <g class="st82">
              <g class="st79">
                <g class="st76">
                  <rect class="st9" x="88.2" y="18.45" width="27.31" height="33.34" transform="translate(32.1 117.22) rotate(-68.67)"/>
                </g>
              </g>
            </g>
            <g class="st83">
              <g class="st75">
                <g class="st78">
                  <rect class="st3" x="16.36" y="-23.13" width="91.13" height="128.11" transform="translate(4.83 88.36) rotate(-73.18)"/>
                </g>
              </g>
            </g>
            <g class="st82">
              <g class="st77">
                <g class="st16">
                  <rect class="st2" x="67.44" y="3.11" width="23.77" height="33.67" transform="translate(31.89 86.58) rotate(-68.67)"/>
                </g>
              </g>
            </g>
          </g>
        </g>
        <polygon class="st80" points="42.9 67.61 44.23 68.81 43.35 67.53 42.9 67.61"/>
        <g class="st13">
          <g>
            <rect class="st7" x="44.77" y="67" width="2.81" height="1.47" transform="translate(-12.07 10.05) rotate(-10.99)"/>
            <rect class="st80" x="44.48" y="65.56" width="2.81" height="1.47" transform="translate(-11.8 9.96) rotate(-10.99)"/>
          </g>
        </g>
        <polygon class="st7" points="41.62 66.37 41.65 66.48 42.9 67.61 43.35 67.53 42.45 66.21 41.62 66.37"/>
        <g class="st20">
          <rect class="st7" x="39.26" y="68.07" width="2.81" height="1.47" transform="translate(-12.37 9.01) rotate(-10.99)"/>
        </g>
        <polygon class="st80" points="41.54 66.38 41.65 66.48 41.62 66.37 41.54 66.38"/>
        <g class="st18">
          <rect class="st7" x="36.23" y="67.16" width="2.81" height="1.47" transform="translate(-12.25 8.42) rotate(-10.99)"/>
        </g>
        <polygon class="st80" points="41.34 64.93 41.62 66.37 42.45 66.21 41.55 64.89 41.34 64.93"/>
        <g class="st19">
          <rect class="st7" x="44.2" y="64.12" width="2.81" height="1.47" transform="translate(-11.53 9.88) rotate(-10.99)"/>
        </g>
        <polygon class="st7" points="41.34 64.93 41.55 64.89 41.25 64.44 41.34 64.93"/>
        <g class="st17">
          <rect class="st80" x="35.95" y="65.72" width="2.81" height="1.47" transform="translate(-11.98 8.34) rotate(-10.99)"/>
        </g>
        <polygon class="st7" points="40.17 65.15 41.54 66.38 41.62 66.37 41.34 64.93 40.17 65.15"/>
        <polygon class="st80" points="38.81 63.92 40.17 65.15 41.34 64.93 41.25 64.44 40.65 63.57 38.81 63.92"/>
        <g class="st14">
          <g>
            <rect class="st7" x="35.67" y="64.28" width="2.81" height="1.47" transform="translate(-11.71 8.26) rotate(-10.99)"/>
            <rect class="st80" x="40.9" y="61.77" width="2.81" height="1.47" transform="translate(-11.14 9.21) rotate(-10.99)"/>
            <rect class="st7" x="40.62" y="60.32" width="2.81" height="1.47" transform="translate(-10.87 9.13) rotate(-10.99)"/>
          </g>
        </g>
        <polygon class="st80" points="37.44 62.69 38.18 63.36 38.03 62.58 37.44 62.69"/>
        <polygon class="st7" points="38.03 62.58 38.18 63.36 38.81 63.92 40.65 63.57 39.75 62.25 38.03 62.58"/>
        <polygon class="st80" points="37.75 61.14 38.03 62.58 39.75 62.25 38.85 60.93 37.75 61.14"/>
        <polygon class="st7" points="36.08 61.47 37.44 62.69 38.03 62.58 37.75 61.14 36.08 61.47"/>
        <g class="st11">
          <g>
            <rect class="st80" x="32.35" y="61.94" width="2.81" height="1.47" transform="translate(-11.33 7.58) rotate(-10.99)"/>
            <rect class="st80" x="40.34" y="58.88" width="2.81" height="1.47" transform="translate(-10.6 9.05) rotate(-10.99)"/>
            <rect class="st7" x="40.06" y="57.44" width="2.81" height="1.47" transform="translate(-10.33 8.97) rotate(-10.99)"/>
          </g>
        </g>
        <polygon class="st80" points="34.72 60.24 36.08 61.47 37.75 61.14 37.47 59.7 34.72 60.24"/>
        <polygon class="st7" points="37.47 59.7 37.75 61.14 38.85 60.93 37.95 59.61 37.47 59.7"/>
        <polygon class="st80" points="37.47 59.7 37.95 59.61 37.25 58.58 37.47 59.7"/>
        <polygon class="st7" points="34.43 58.79 34.71 60.23 34.72 60.24 37.47 59.7 37.25 58.58 37.05 58.29 34.43 58.79"/>
        <g class="st15">
          <g>
            <rect class="st80" x="29.32" y="61.03" width="2.81" height="1.47" transform="translate(-11.21 6.99) rotate(-10.99)"/>
            <rect class="st7" x="32.07" y="60.5" width="2.81" height="1.47" transform="translate(-11.06 7.5) rotate(-10.99)"/>
          </g>
        </g>
        <polygon class="st80" points="33.35 59.01 34.71 60.23 34.43 58.79 33.35 59.01"/>
        <g class="st12">
          <rect class="st7" x="29.04" y="59.58" width="2.81" height="1.47" transform="translate(-10.94 6.91) rotate(-10.99)"/>
        </g>
        <polygon class="st80" points="34.15 57.35 34.43 58.79 37.05 58.29 36.15 56.97 34.15 57.35"/>
        <g class="st54">
          <g>
            <rect class="st7" x="37.02" y="56.55" width="2.81" height="1.47" transform="translate(-10.22 8.38) rotate(-10.99)"/>
            <rect class="st80" x="36.74" y="55.11" width="2.81" height="1.47" transform="translate(-9.95 8.3) rotate(-10.99)"/>
          </g>
        </g>
        <polygon class="st7" points="33.87 55.91 34.15 57.35 36.15 56.97 35.25 55.65 33.87 55.91"/>
        <g class="st55">
          <rect class="st80" x="28.76" y="58.14" width="2.81" height="1.47" transform="translate(-10.67 6.83) rotate(-10.99)"/>
        </g>
        <polygon class="st7" points="31.99 57.78 33.35 59.01 34.43 58.8 34.15 57.36 31.99 57.78"/>
        <polygon class="st80" points="31.12 56.45 31.25 57.11 31.99 57.78 34.15 57.35 33.87 55.91 31.12 56.45"/>
        <polygon class="st7" points="30.62 56.55 31.25 57.11 31.12 56.45 30.62 56.55"/>
        <g class="st56">
          <g>
            <rect class="st80" x="25.72" y="57.25" width="2.81" height="1.47" transform="translate(-10.56 6.24) rotate(-10.99)"/>
            <rect class="st80" x="39.22" y="53.12" width="2.81" height="1.47" transform="translate(-9.52 8.73) rotate(-10.99)"/>
            <rect class="st7" x="41.97" y="52.6" width="2.81" height="1.47" transform="translate(-9.37 9.25) rotate(-10.99)"/>
          </g>
        </g>
        <polygon class="st80" points="42.69 51.21 43.2 51.27 43.05 51.14 42.69 51.21"/>
        <g class="st57">
          <rect class="st7" x="38.94" y="51.68" width="2.81" height="1.47" transform="translate(-9.25 8.65) rotate(-10.99)"/>
        </g>
        <polygon class="st80" points="33.59 54.47 33.87 55.91 35.25 55.65 34.35 54.33 33.59 54.47"/>
        <g class="st58">
          <g>
            <rect class="st7" x="36.46" y="53.67" width="2.81" height="1.47" transform="translate(-9.68 8.22) rotate(-10.99)"/>
            <rect class="st80" x="36.19" y="52.23" width="2.81" height="1.47" transform="translate(-9.41 8.14) rotate(-10.99)"/>
          </g>
        </g>
        <polygon class="st7" points="33.31 53.03 33.59 54.47 34.35 54.33 33.45 53.01 33.31 53.03"/>
        <polygon class="st80" points="29.26 55.32 30.62 56.55 31.12 56.45 30.84 55.01 29.26 55.32"/>
        <rect class="st7" x="30.96" y="54.73" width="2.81" height="1.47" transform="translate(-9.99 7.19) rotate(-11)"/>
        <rect class="st80" x="30.67" y="53.3" width="2.81" height="1.47" transform="translate(-9.75 7.14) rotate(-11.04)"/>
        <polygon class="st7" points="27.89 54.09 29.26 55.32 30.84 55.01 30.56 53.57 27.89 54.09"/>
        <g class="st59">
          <g>
            <rect class="st7" x="25.44" y="55.81" width="2.81" height="1.47" transform="translate(-10.29 6.16) rotate(-10.99)"/>
            <rect class="st80" x="25.16" y="54.37" width="2.81" height="1.47" transform="translate(-10.02 6.07) rotate(-10.99)"/>
            <rect class="st80" x="44.17" y="49.17" width="2.81" height="1.47" transform="translate(-8.68 9.6) rotate(-10.99)"/>
            <rect class="st7" x="43.89" y="47.73" width="2.81" height="1.47" transform="translate(-8.41 9.52) rotate(-10.99)"/>
          </g>
        </g>
        <polygon class="st80" points="38.54 50.52 38.58 50.73 41.51 51.07 41.3 49.99 38.54 50.52"/>
        <polygon class="st7" points="41.3 49.99 41.51 51.07 42.69 51.21 43.05 51.14 41.7 49.91 41.3 49.99"/>
        <polygon class="st80" points="41.3 49.99 41.7 49.91 41.19 49.45 41.3 49.99"/>
        <polygon class="st7" points="38.26 49.08 38.54 50.52 41.3 49.99 41.19 49.45 40.35 48.68 38.26 49.08"/>
        <polygon class="st80" points="33.31 53.03 33.45 53.01 33.25 52.72 33.31 53.03"/>
        <polygon class="st7" points="37.88 50.65 38.58 50.73 38.54 50.52 37.88 50.65"/>
        <polygon class="st80" points="35.51 49.62 35.66 50.39 37.88 50.65 38.54 50.52 38.26 49.08 35.51 49.62"/>
        <polygon class="st7" points="33.07 50.09 35.66 50.39 35.51 49.62 33.07 50.09"/>
        <polygon class="st80" points="27.53 52.66 27.78 53.99 27.89 54.09 30.56 53.57 30.28 52.13 27.53 52.66"/>
        <polygon class="st7" points="30.28 52.13 30.56 53.57 33.31 53.03 33.25 52.72 32.55 51.69 30.28 52.13"/>
        <polygon class="st80" points="30 50.69 30.28 52.13 32.55 51.69 31.65 50.37 30 50.69"/>
        <rect class="st7" x="27.36" y="50.94" width="2.81" height="1.47" transform="translate(-9.36 6.46) rotate(-11.03)"/>
        <g class="st52">
          <rect class="st80" x="22.13" y="53.45" width="2.81" height="1.47" transform="translate(-9.9 5.48) rotate(-10.99)"/>
        </g>
        <polygon class="st7" points="26.53 52.86 27.78 53.99 27.53 52.66 26.53 52.86"/>
        <polygon class="st80" points="25.16 51.63 26.53 52.86 27.53 52.66 27.25 51.22 25.16 51.63"/>
        <g class="st50">
          <g>
            <rect class="st7" x="21.85" y="52.01" width="2.81" height="1.47" transform="translate(-9.63 5.4) rotate(-10.99)"/>
            <rect class="st80" x="43.61" y="46.29" width="2.81" height="1.47" transform="translate(-8.14 9.44) rotate(-10.99)"/>
          </g>
        </g>
        <polygon class="st80" points="37.98 47.64 38.26 49.08 40.34 48.68 38.99 47.44 37.98 47.64"/>
        <g class="st53">
          <g>
            <rect class="st7" x="40.85" y="46.82" width="2.81" height="1.47" transform="translate(-8.29 8.93) rotate(-10.99)"/>
            <rect class="st80" x="40.57" y="45.38" width="2.81" height="1.47" transform="translate(-8.02 8.85) rotate(-10.99)"/>
          </g>
        </g>
        <polygon class="st7" points="37.98 47.64 38.99 47.44 37.72 46.29 37.98 47.64"/>
        <polygon class="st80" points="32.47 48.71 32.73 50.05 33.07 50.09 35.51 49.62 35.23 48.18 32.47 48.71"/>
        <rect class="st7" x="35.34" y="47.89" width="2.81" height="1.47" transform="translate(-8.6 7.9) rotate(-11)"/>
        <polygon class="st80" points="34.95 46.73 35.23 48.18 37.98 47.64 37.72 46.29 37.63 46.21 34.95 46.73"/>
        <rect class="st7" x="32.31" y="47" width="2.81" height="1.47" transform="translate(-8.51 7.33) rotate(-11.03)"/>
        <rect class="st80" x="27.07" y="49.5" width="2.81" height="1.47" transform="translate(-9.06 6.36) rotate(-11)"/>
        <polygon class="st7" points="29.72 49.25 30 50.69 31.65 50.37 31.32 49.89 32.73 50.05 32.47 48.71 29.72 49.25"/>
        <rect class="st80" x="29.55" y="47.52" width="2.81" height="1.47" transform="translate(-8.64 6.79) rotate(-11)"/>
        <rect class="st7" x="26.8" y="48.05" width="2.81" height="1.47" transform="translate(-8.79 6.28) rotate(-11)"/>
        <polygon class="st80" points="23.8 50.4 24.32 50.86 24.21 50.32 23.8 50.4"/>
        <polygon class="st7" points="24.21 50.32 24.32 50.86 25.16 51.63 27.25 51.22 26.96 49.78 24.21 50.32"/>
        <rect class="st80" x="24.05" y="48.6" width="2.81" height="1.47" transform="translate(-8.95 5.76) rotate(-11)"/>
        <polygon class="st7" points="22.43 49.17 23.8 50.4 24.21 50.32 23.93 48.88 22.43 49.17"/>
        <g class="st51">
          <g>
            <rect class="st7" x="18.82" y="51.12" width="2.81" height="1.47" transform="translate(-9.51 4.81) rotate(-10.99)"/>
            <rect class="st80" x="18.54" y="49.68" width="2.81" height="1.47" transform="translate(-9.24 4.73) rotate(-10.99)"/>
            <rect class="st80" x="37.54" y="44.48" width="2.81" height="1.47" transform="translate(-7.91 8.25) rotate(-10.99)"/>
            <rect class="st7" x="37.27" y="43.04" width="2.81" height="1.47" transform="translate(-7.64 8.17) rotate(-10.99)"/>
          </g>
        </g>
        <rect class="st80" x="32.04" y="45.55" width="2.81" height="1.47" transform="translate(-8.22 7.23) rotate(-11)"/>
        <polygon class="st7" points="34.67 45.29 34.95 46.73 37.63 46.21 36.28 44.98 34.67 45.29"/>
        <polygon class="st80" points="34.39 43.85 34.67 45.29 36.28 44.98 34.93 43.75 34.39 43.85"/>
        <rect class="st7" x="31.75" y="44.11" width="2.81" height="1.47" transform="translate(-7.95 7.15) rotate(-11)"/>
        <rect class="st80" x="26.53" y="46.61" width="2.81" height="1.47" transform="translate(-8.52 6.2) rotate(-11)"/>
        <rect class="st7" x="29.27" y="46.08" width="2.81" height="1.47" transform="translate(-8.37 6.71) rotate(-11)"/>
        <rect class="st80" x="28.99" y="44.65" width="2.81" height="1.47" transform="translate(-8.1 6.63) rotate(-11)"/>
        <rect class="st7" x="26.24" y="45.18" width="2.81" height="1.47" transform="translate(-8.25 6.12) rotate(-11)"/>
        <polygon class="st80" points="21.07 47.94 22.43 49.17 23.93 48.88 23.65 47.44 21.07 47.94"/>
        <rect class="st7" x="23.77" y="47.15" width="2.81" height="1.47" transform="translate(-8.67 5.68) rotate(-11)"/>
        <rect class="st80" x="23.48" y="45.71" width="2.81" height="1.47" transform="translate(-8.43 5.62) rotate(-11.04)"/>
        <polygon class="st7" points="20.62 46.53 20.85 47.74 21.07 47.94 23.65 47.44 23.37 46 20.62 46.53"/>
        <g class="st46">
          <rect class="st7" x="18.26" y="48.24" width="2.81" height="1.47" transform="translate(-8.97 4.65) rotate(-10.99)"/>
        </g>
        <polygon class="st80" points="19.7 46.71 20.85 47.74 20.62 46.53 19.7 46.71"/>
        <g class="st40">
          <g>
            <rect class="st7" x="15.22" y="47.32" width="2.81" height="1.47" transform="translate(-8.86 4.05) rotate(-10.99)"/>
            <rect class="st80" x="36.98" y="41.6" width="2.81" height="1.47" transform="translate(-7.37 8.09) rotate(-10.99)"/>
          </g>
        </g>
        <polygon class="st80" points="31.35 42.95 31.63 44.39 34.39 43.85 34.25 43.13 33.57 42.52 31.35 42.95"/>
        <polygon class="st7" points="34.39 43.85 34.93 43.75 34.25 43.13 34.39 43.85"/>
        <g class="st41">
          <rect class="st80" x="33.94" y="40.69" width="2.81" height="1.47" transform="translate(-7.25 7.5) rotate(-10.99)"/>
        </g>
        <polygon class="st7" points="31.07 41.51 31.35 42.95 33.57 42.52 32.22 41.29 31.07 41.51"/>
        <polygon class="st80" points="25.84 44.02 26.12 45.46 28.88 44.92 28.67 43.85 26.99 43.8 25.84 44.02"/>
        <polygon class="st7" points="28.67 43.47 29.08 43.86 28.67 43.85 28.88 44.92 31.63 44.39 31.35 42.95 28.67 43.47"/>
        <polygon class="st80" points="28.32 42.04 28.58 43.38 28.67 43.47 31.35 42.95 31.07 41.51 28.32 42.04"/>
        <path class="st7" d="M25.84,44.02l1.14-.22-1.19-.04.05.26ZM27.4,42.22l1.18,1.15-.26-1.33s-.92.18-.92.18Z"/>
        <rect class="st80" x="20.45" y="44.81" width="2.81" height="1.47" transform="translate(-8.29 5.01) rotate(-11)"/>
        <rect class="st7" x="23.21" y="44.27" width="2.81" height="1.47" transform="translate(-8.13 5.52) rotate(-11)"/>
        <polygon class="st80" points="23.09 44.55 25.85 44.02 25.79 43.76 22.92 43.67 23.09 44.55"/>
        <polygon class="st7" points="20.06 43.65 20.34 45.09 23.09 44.55 22.92 43.67 20.39 43.58 20.06 43.65"/>
        <g class="st42">
          <rect class="st80" x="14.94" y="45.88" width="2.81" height="1.47" transform="translate(-8.59 3.97) rotate(-10.99)"/>
        </g>
        <polygon class="st7" points="18.34 45.48 19.7 46.71 20.62 46.53 20.34 45.09 18.34 45.48"/>
        <polygon class="st80" points="17.3 44.19 17.39 44.62 18.34 45.48 20.34 45.09 20.06 43.65 17.3 44.19"/>
        <polygon class="st7" points="16.98 44.25 17.39 44.62 17.3 44.19 16.98 44.25"/>
        <g class="st43">
          <rect class="st80" x="11.91" y="44.98" width="2.81" height="1.47" transform="translate(-8.47 3.38) rotate(-10.99)"/>
        </g>
        <polygon class="st80" points="30.79 40.07 31.07 41.51 32.22 41.29 30.86 40.05 30.79 40.07"/>
        <g class="st44">
          <g>
            <rect class="st7" x="33.66" y="39.25" width="2.81" height="1.47" transform="translate(-6.98 7.42) rotate(-10.99)"/>
            <rect class="st80" x="33.38" y="37.81" width="2.81" height="1.47" transform="translate(-6.71 7.34) rotate(-10.99)"/>
          </g>
        </g>
        <polygon class="st7" points="30.79 40.07 30.86 40.05 30.78 39.98 30.79 40.07"/>
        <polygon class="st80" points="26.12 40.98 27.4 42.22 28.32 42.04 28.04 40.6 26.12 40.98"/>
        <rect class="st7" x="28.15" y="40.33" width="2.81" height="1.47" transform="translate(-7.29 6.39) rotate(-11)"/>
        <polygon class="st80" points="27.76 39.16 28.04 40.6 30.79 40.07 30.78 39.98 29.51 38.82 27.76 39.16"/>
        <polygon class="st7" points="25 39.7 25.05 39.93 26.12 40.98 28.04 40.6 27.76 39.16 25 39.7"/>
        <polygon class="st80" points="20.06 43.65 20.39 43.58 20.04 43.57 20.06 43.65"/>
        <g class="st47">
          <rect class="st7" x="22.64" y="41.4" width="2.81" height="1.47" transform="translate(-7.59 5.36) rotate(-10.99)"/>
        </g>
        <polygon class="st80" points="24.84 39.73 25.05 39.93 25 39.7 24.84 39.73"/>
        <g class="st48">
          <rect class="st7" x="19.61" y="40.49" width="2.81" height="1.47" transform="translate(-7.47 4.76) rotate(-10.99)"/>
        </g>
        <polygon class="st80" points="16.98 44.25 17.3 44.19 17.16 43.48 16.09 43.45 16.98 44.25"/>
        <polygon class="st7" points="17.3 44.19 20.06 43.65 20.04 43.57 17.16 43.48 17.3 44.19"/>
        <g class="st49">
          <g>
            <rect class="st80" x="16.86" y="41.02" width="2.81" height="1.47" transform="translate(-7.63 4.25) rotate(-10.99)"/>
            <rect class="st7" x="14.1" y="41.56" width="2.81" height="1.47" transform="translate(-7.78 3.73) rotate(-10.99)"/>
            <rect class="st80" x="30.35" y="36.91" width="2.81" height="1.47" transform="translate(-6.59 6.74) rotate(-10.99)"/>
            <rect class="st7" x="30.07" y="35.46" width="2.81" height="1.47" transform="translate(-6.32 6.66) rotate(-10.99)"/>
          </g>
        </g>
        <rect class="st80" x="24.85" y="37.98" width="2.81" height="1.47" transform="translate(-6.9 5.72) rotate(-11)"/>
        <polygon class="st7" points="27.48 37.72 27.76 39.16 29.51 38.82 28.15 37.59 27.48 37.72"/>
        <polygon class="st80" points="27.48 37.72 28.15 37.59 27.3 36.82 27.48 37.72"/>
        <polygon class="st7" points="24.44 36.82 24.72 38.26 27.48 37.72 27.3 36.82 26.8 36.36 24.44 36.82"/>
        <g class="st45">
          <rect class="st80" x="19.33" y="39.05" width="2.81" height="1.47" transform="translate(-7.2 4.68) rotate(-10.99)"/>
        </g>
        <polygon class="st7" points="23.56 38.48 24.84 39.73 25.01 39.7 24.72 38.26 23.56 38.48"/>
        <polygon class="st80" points="22.29 37.24 23.56 38.48 24.72 38.26 24.44 36.82 22.29 37.24"/>
        <g class="st67">
          <rect class="st7" x="19.05" y="37.61" width="2.81" height="1.47" transform="translate(-6.93 4.6) rotate(-10.99)"/>
        </g>
        <polygon class="st80" points="24.16 35.38 24.44 36.82 26.8 36.36 25.44 35.13 24.16 35.38"/>
        <g class="st61">
          <g>
            <rect class="st7" x="27.03" y="34.56" width="2.81" height="1.47" transform="translate(-6.21 6.07) rotate(-10.99)"/>
            <rect class="st80" x="26.75" y="33.12" width="2.81" height="1.47" transform="translate(-5.94 5.99) rotate(-10.99)"/>
          </g>
        </g>
        <polygon class="st7" points="23.88 33.93 24.16 35.38 25.44 35.13 24.09 33.9 23.88 33.93"/>
        <polygon class="st80" points="21.01 35.99 21.52 36.49 21.41 35.91 21.01 35.99"/>
        <polygon class="st7" points="21.41 35.91 21.52 36.49 22.29 37.24 24.44 36.82 24.16 35.38 21.41 35.91"/>
        <rect class="st80" x="21.24" y="34.19" width="2.81" height="1.47" transform="translate(-6.26 4.98) rotate(-11.03)"/>
        <polygon class="st7" points="19.73 34.74 21.01 35.99 21.41 35.91 21.13 34.47 19.73 34.74"/>
        <g class="st62">
          <g>
            <rect class="st7" x="16.01" y="36.7" width="2.81" height="1.47" transform="translate(-6.83 4.02) rotate(-11.01)"/>
            <rect class="st80" x="15.74" y="35.26" width="2.81" height="1.47" transform="translate(-6.55 3.93) rotate(-10.99)"/>
            <rect class="st7" x="34.46" y="28.64" width="2.81" height="1.47" transform="translate(-4.94 7.38) rotate(-10.99)"/>
            <rect class="st80" x="29.23" y="31.14" width="2.81" height="1.47" transform="translate(-5.51 6.43) rotate(-10.99)"/>
            <rect class="st7" x="31.98" y="30.61" width="2.81" height="1.47" transform="translate(-5.36 6.94) rotate(-10.99)"/>
          </g>
        </g>
        <polygon class="st80" points="31.59 29.45 31.66 29.84 33.44 29.96 32.64 29.24 31.59 29.45"/>
        <polygon class="st7" points="30.16 29.73 31.66 29.83 31.59 29.45 30.16 29.73"/>
        <polygon class="st80" points="23.88 33.93 24.09 33.9 23.83 33.66 23.88 33.93"/>
        <g class="st63">
          <g>
            <rect class="st7" x="26.47" y="31.68" width="2.81" height="1.47" transform="translate(-5.67 5.91) rotate(-10.99)"/>
            <rect class="st80" x="26.19" y="30.24" width="2.81" height="1.47" transform="translate(-5.4 5.83) rotate(-10.99)"/>
            <rect class="st7" x="23.44" y="30.77" width="2.81" height="1.47" transform="translate(-5.55 5.31) rotate(-10.99)"/>
          </g>
        </g>
        <polygon class="st80" points="18.45 33.5 19.73 34.74 21.13 34.47 20.85 33.03 18.45 33.5"/>
        <polygon class="st7" points="20.85 33.03 21.13 34.47 23.88 33.93 23.83 33.66 22.73 32.66 20.85 33.03"/>
        <polygon class="st80" points="20.57 31.59 20.85 33.03 22.73 32.66 21.38 31.43 20.57 31.59"/>
        <polygon class="st7" points="17.82 32.13 18 33.05 18.45 33.5 20.85 33.03 20.57 31.59 17.82 32.13"/>
        <g class="st64">
          <rect class="st7" x="15.46" y="33.82" width="2.81" height="1.47" transform="translate(-6.28 3.85) rotate(-10.99)"/>
        </g>
        <polygon class="st80" points="17.17 32.25 18 33.05 17.82 32.12 17.17 32.25"/>
        <g class="st65">
          <g>
            <rect class="st7" x="12.42" y="32.91" width="2.81" height="1.47" transform="translate(-6.16 3.25) rotate(-10.99)"/>
            <rect class="st80" x="34.18" y="27.2" width="2.81" height="1.47" transform="translate(-4.67 7.3) rotate(-10.99)"/>
          </g>
        </g>
        <polygon class="st80" points="28.55 28.54 28.76 29.62 30.16 29.73 31.59 29.45 31.31 28.04 31.28 28.01 28.55 28.54"/>
        <polygon class="st7" points="31.59 29.45 32.64 29.24 31.31 28.04 31.59 29.45"/>
        <g class="st68">
          <rect class="st80" x="31.14" y="26.29" width="2.81" height="1.47" transform="translate(-4.56 6.7) rotate(-10.99)"/>
        </g>
        <polygon class="st7" points="28.27 27.1 28.55 28.54 31.29 28.01 29.93 26.78 28.27 27.1"/>
        <polygon class="st80" points="24.56 29.32 25.86 29.41 25.8 29.08 24.56 29.32"/>
        <polygon class="st7" points="25.8 29.08 25.86 29.41 28.76 29.62 28.55 28.54 25.8 29.08"/>
        <rect class="st80" x="25.63" y="27.36" width="2.81" height="1.47" transform="translate(-4.87 5.67) rotate(-11)"/>
        <polygon class="st7" points="22.76 28.17 22.97 29.2 24.56 29.32 25.8 29.08 25.52 27.64 22.76 28.17"/>
        <polygon class="st80" points="17.54 30.68 17.82 32.13 20.57 31.59 20.36 30.51 20.02 30.2 17.54 30.68"/>
        <polygon class="st7" points="20.57 31.59 21.38 31.43 20.36 30.51 20.57 31.59"/>
        <polygon class="st80" points="20.01 28.71 20.07 28.99 22.96 29.2 22.76 28.17 20.01 28.71"/>
        <path class="st7" d="M17.26,29.24l.28,1.44,2.49-.48-1.35-1.23-1.41.27h-.01ZM18.96,28.91l1.11.08-.05-.28-1.05.2h-.01Z"/>
        <g class="st69">
          <rect class="st80" x="12.14" y="31.47" width="2.81" height="1.47" transform="translate(-5.89 3.17) rotate(-10.99)"/>
        </g>
        <polygon class="st7" points="15.9 31 17.17 32.25 17.82 32.12 17.54 30.68 15.9 31"/>
        <polygon class="st80" points="14.62 29.76 15.9 31 17.54 30.68 17.26 29.24 14.62 29.76"/>
        <g class="st70">
          <rect class="st7" x="11.86" y="30.03" width="2.81" height="1.47" transform="translate(-5.62 3.09) rotate(-10.99)"/>
        </g>
        <polygon class="st80" points="27.99 25.66 28.27 27.1 29.93 26.78 28.57 25.55 27.99 25.66"/>
        <g class="st66">
          <g>
            <rect class="st7" x="30.86" y="24.84" width="2.81" height="1.47" transform="translate(-4.28 6.62) rotate(-10.99)"/>
            <rect class="st80" x="30.58" y="23.4" width="2.81" height="1.47" transform="translate(-4.01 6.54) rotate(-10.99)"/>
          </g>
        </g>
        <polygon class="st7" points="27.99 25.66 28.57 25.55 27.84 24.89 27.99 25.66"/>
        <rect class="st80" x="22.61" y="26.45" width="2.81" height="1.47" transform="translate(-4.75 5.08) rotate(-11)"/>
        <rect class="st7" x="25.36" y="25.91" width="2.81" height="1.47" transform="translate(-4.59 5.6) rotate(-11)"/>
        <polygon class="st80" points="24.96 24.76 25.24 26.2 27.99 25.66 27.84 24.89 27.21 24.32 24.96 24.76"/>
        <rect class="st7" x="22.33" y="25.01" width="2.81" height="1.47" transform="translate(-4.48 5) rotate(-11)"/>
        <polygon class="st80" points="16.98 27.8 17.26 29.24 18.67 28.97 18.58 28.88 18.96 28.91 20.01 28.71 19.73 27.27 16.98 27.8"/>
        <rect class="st7" x="19.84" y="26.99" width="2.81" height="1.47" transform="translate(-4.9 4.56) rotate(-11)"/>
        <rect class="st80" x="19.56" y="25.55" width="2.81" height="1.47" transform="translate(-4.64 4.5) rotate(-11.03)"/>
        <rect class="st7" x="16.81" y="26.08" width="2.81" height="1.47" transform="translate(-4.78 3.97) rotate(-11)"/>
        <polygon class="st80" points="13.34 28.51 14.47 29.61 14.22 28.34 13.34 28.51"/>
        <polygon class="st7" points="14.22 28.34 14.47 29.61 14.62 29.76 17.26 29.24 16.98 27.8 14.22 28.34"/>
        <rect class="st80" x="14.06" y="26.62" width="2.81" height="1.47" transform="translate(-4.94 3.45) rotate(-11)"/>
        <polygon class="st7" points="12.06 27.26 13.34 28.51 14.22 28.34 13.94 26.9 12.06 27.26"/>
        <g class="st30">
          <g>
            <rect class="st7" x="8.83" y="29.13" width="2.81" height="1.47" transform="translate(-5.51 2.5) rotate(-10.99)"/>
            <rect class="st80" x="8.56" y="27.69" width="2.81" height="1.47" transform="translate(-5.24 2.42) rotate(-10.99)"/>
            <rect class="st80" x="27.55" y="22.51" width="2.81" height="1.47" transform="translate(-3.9 5.95) rotate(-10.99)"/>
            <rect class="st7" x="27.27" y="21.07" width="2.81" height="1.47" transform="translate(-3.63 5.87) rotate(-10.99)"/>
          </g>
        </g>
        <rect class="st80" x="22.04" y="23.57" width="2.81" height="1.47" transform="translate(-4.21 4.92) rotate(-11)"/>
        <polygon class="st7" points="24.68 23.32 24.96 24.76 27.21 24.32 25.86 23.09 24.68 23.32"/>
        <polygon class="st80" points="24.4 21.87 24.68 23.32 25.86 23.09 24.5 21.85 24.4 21.87"/>
        <rect class="st7" x="21.77" y="22.13" width="2.81" height="1.47" transform="translate(-3.94 4.84) rotate(-11)"/>
        <rect class="st80" x="16.53" y="24.64" width="2.81" height="1.47" transform="translate(-4.51 3.89) rotate(-11)"/>
        <rect class="st7" x="19.28" y="24.12" width="2.81" height="1.47" transform="translate(-4.36 4.4) rotate(-11)"/>
        <rect class="st80" x="19" y="22.66" width="2.81" height="1.47" transform="translate(-4.09 4.32) rotate(-11)"/>
        <rect class="st7" x="16.26" y="23.2" width="2.81" height="1.47" transform="translate(-4.24 3.81) rotate(-11)"/>
        <polygon class="st80" points="10.91 25.99 10.94 26.17 12.06 27.26 13.94 26.9 13.66 25.46 10.91 25.99"/>
        <rect class="st7" x="13.78" y="25.18" width="2.81" height="1.47" transform="translate(-4.67 3.37) rotate(-11)"/>
        <rect class="st80" x="13.5" y="23.74" width="2.81" height="1.47" transform="translate(-4.4 3.29) rotate(-11)"/>
        <rect class="st7" x="10.74" y="24.27" width="2.81" height="1.47" transform="translate(-4.56 2.79) rotate(-11.04)"/>
        <polygon class="st7" points="10.79 26.02 10.94 26.17 10.91 25.99 10.79 26.02"/>
        <polygon class="st80" points="9.51 24.77 10.78 26.02 10.91 25.99 10.63 24.55 9.51 24.77"/>
        <g class="st37">
          <g>
            <rect class="st7" x="5.23" y="25.34" width="2.81" height="1.47" transform="translate(-4.85 1.74) rotate(-10.99)"/>
            <rect class="st80" x="26.99" y="19.63" width="2.81" height="1.47" transform="translate(-3.36 5.79) rotate(-10.99)"/>
          </g>
        </g>
        <polygon class="st80" points="21.36 20.97 21.64 22.41 24.4 21.87 24.37 21.74 23.14 20.62 21.36 20.97"/>
        <polygon class="st7" points="24.4 21.87 24.5 21.85 24.37 21.74 24.4 21.87"/>
        <g class="st32">
          <rect class="st80" x="23.95" y="18.71" width="2.81" height="1.47" transform="translate(-3.24 5.19) rotate(-10.99)"/>
        </g>
        <polygon class="st7" points="21.08 19.53 21.36 20.97 23.14 20.62 21.79 19.39 21.08 19.53"/>
        <rect class="st80" x="15.97" y="21.76" width="2.81" height="1.47" transform="translate(-3.98 3.74) rotate(-11.03)"/>
        <rect class="st7" x="18.72" y="21.22" width="2.81" height="1.47" transform="translate(-3.82 4.24) rotate(-11)"/>
        <rect class="st80" x="18.44" y="19.79" width="2.81" height="1.47" transform="translate(-3.55 4.16) rotate(-11)"/>
        <polygon class="st7" points="16.68 20.38 17.17 21.13 15.65 21 15.86 22.04 18.61 21.5 18.33 20.06 16.68 20.38"/>
        <rect class="st80" x="10.46" y="22.82" width="2.81" height="1.47" transform="translate(-4.28 2.7) rotate(-11)"/>
        <rect class="st7" x="13.23" y="22.29" width="2.81" height="1.47" transform="translate(-4.12 3.21) rotate(-11)"/>
        <polygon class="st80" points="12.82 21.14 13.1 22.58 15.86 22.04 15.65 21 14.17 20.87 12.82 21.14"/>
        <rect class="st7" x="10.18" y="21.39" width="2.81" height="1.47" transform="translate(-4.01 2.62) rotate(-11)"/>
        <g class="st36">
          <rect class="st80" x="4.95" y="23.9" width="2.81" height="1.47" transform="translate(-4.58 1.66) rotate(-10.99)"/>
        </g>
        <polygon class="st7" points="8.23 23.52 9.51 24.77 10.63 24.55 10.35 23.11 8.23 23.52"/>
        <polygon class="st80" points="7.31 22.21 7.41 22.73 8.23 23.52 10.35 23.11 10.07 21.67 7.31 22.21"/>
        <polygon class="st7" points="6.95 22.28 7.41 22.73 7.31 22.21 6.95 22.28"/>
        <g class="st34">
          <rect class="st80" x="1.92" y="23" width="2.81" height="1.47" transform="translate(-4.46 1.07) rotate(-10.99)"/>
        </g>
        <polygon class="st80" points="21.08 19.53 21.79 19.39 20.9 18.59 21.08 19.53"/>
        <g class="st31">
          <g>
            <rect class="st7" x="23.67" y="17.27" width="2.81" height="1.47" transform="translate(-2.97 5.11) rotate(-10.99)"/>
            <rect class="st7" x="20.65" y="16.38" width="2.81" height="1.47" transform="translate(-2.86 4.52) rotate(-10.99)"/>
          </g>
        </g>
        <polygon class="st80" points="15.81 19.06 16.68 20.38 18.33 20.06 18.05 18.62 15.81 19.06"/>
        <polygon class="st7" points="18.05 18.62 18.33 20.07 21.09 19.53 20.9 18.59 20.43 18.16 18.05 18.62"/>
        <polygon class="st80" points="17.77 17.18 18.05 18.62 20.43 18.16 19.07 16.93 17.77 17.18"/>
        <polygon class="st7" points="15.02 17.72 15.05 17.91 15.81 19.06 18.05 18.62 17.77 17.18 15.02 17.72"/>
        <polygon class="st80" points="10.07 21.67 12.82 21.13 12.75 20.75 9.84 20.5 10.07 21.67"/>
        <polygon class="st7" points="12.82 21.14 14.17 20.87 12.75 20.75 12.82 21.14"/>
        <polygon class="st80" points="14.93 17.73 15.05 17.91 15.01 17.72 14.93 17.73"/>
        <g class="st35">
          <rect class="st7" x="9.63" y="18.51" width="2.81" height="1.47" transform="translate(-3.47 2.46) rotate(-10.99)"/>
        </g>
        <polygon class="st80" points="5.67 21.03 6.95 22.28 7.31 22.21 7.03 20.77 5.67 21.03"/>
        <polygon class="st7" points="7.03 20.77 7.31 22.21 10.07 21.67 9.84 20.5 8.82 20.42 7.03 20.77"/>
        <polygon class="st80" points="7.03 20.77 8.82 20.42 6.93 20.26 7.03 20.77"/>
        <polygon class="st7" points="5.67 21.03 7.03 20.77 6.93 20.26 4.69 20.07 5.67 21.03"/>
        <g class="st33">
          <g>
            <rect class="st80" x="20.37" y="14.94" width="2.81" height="1.47" transform="translate(-2.59 4.44) rotate(-10.99)"/>
            <rect class="st7" x="20.09" y="13.5" width="2.81" height="1.47" transform="translate(-2.32 4.36) rotate(-10.99)"/>
          </g>
        </g>
        <rect class="st80" x="14.86" y="16" width="2.81" height="1.47" transform="translate(-2.89 3.41) rotate(-11)"/>
        <polygon class="st7" points="17.49 15.74 17.77 17.18 19.07 16.93 17.72 15.7 17.49 15.74"/>
        <polygon class="st80" points="17.49 15.74 17.72 15.7 17.43 15.44 17.49 15.74"/>
        <polygon class="st7" points="14.46 14.84 14.74 16.28 17.49 15.74 17.43 15.44 16.36 14.47 14.46 14.84"/>
        <g class="st38">
          <rect class="st80" x="9.35" y="17.07" width="2.81" height="1.47" transform="translate(-3.2 2.38) rotate(-10.99)"/>
        </g>
        <polygon class="st7" points="14.06 16.41 14.93 17.73 15.02 17.72 14.74 16.28 14.06 16.41"/>
        <polygon class="st80" points="13.19 15.08 14.06 16.41 14.74 16.28 14.46 14.84 13.19 15.08"/>
        <g class="st39">
          <g>
            <rect class="st7" x="9.06" y="15.63" width="2.81" height="1.47" transform="translate(-2.93 2.29) rotate(-10.99)"/>
            <rect class="st80" x="3.83" y="18.14" width="2.81" height="1.47" transform="translate(-3.5 1.34) rotate(-10.99)"/>
            <rect class="st7" x="6.59" y="17.6" width="2.81" height="1.47" transform="translate(-3.35 1.86) rotate(-10.99)"/>
          </g>
        </g>
        <polygon class="st80" points="14.18 13.4 14.46 14.84 16.36 14.47 15 13.24 14.18 13.4"/>
        <g class="st24">
          <g>
            <rect class="st7" x="17.04" y="12.58" width="2.81" height="1.47" transform="translate(-2.2 3.76) rotate(-10.99)"/>
            <rect class="st80" x="16.76" y="11.14" width="2.81" height="1.47" transform="translate(-1.93 3.68) rotate(-10.99)"/>
          </g>
        </g>
        <polygon class="st7" points="14.18 13.4 15 13.24 13.96 12.29 14.18 13.4"/>
        <g class="st21">
          <rect class="st80" x="8.78" y="14.19" width="2.81" height="1.47" transform="translate(-2.66 2.21) rotate(-10.99)"/>
        </g>
        <polygon class="st7" points="12.32 13.76 13.19 15.08 14.46 14.84 14.18 13.4 12.32 13.76"/>
        <polygon class="st80" points="11.44 12.43 12.31 13.76 14.18 13.4 13.96 12.29 13.64 12.01 11.44 12.43"/>
        <g class="st26">
          <g>
            <rect class="st7" x="8.5" y="12.75" width="2.81" height="1.47" transform="translate(-2.39 2.14) rotate(-10.99)"/>
            <rect class="st80" x="13.73" y="10.24" width="2.81" height="1.47" transform="translate(-1.81 3.09) rotate(-10.99)"/>
            <rect class="st7" x="16.48" y="9.7" width="2.81" height="1.47" transform="translate(-1.66 3.6) rotate(-10.99)"/>
            <rect class="st7" x="13.45" y="8.8" width="2.81" height="1.47" transform="translate(-1.54 3.01) rotate(-10.99)"/>
          </g>
        </g>
        <polygon class="st80" points="10.57 11.11 11 11.76 10.86 11.05 10.57 11.11"/>
        <polygon class="st7" points="10.79 10.82 10.98 11.73 11.44 12.43 13.65 12.01 12.07 10.57 10.79 10.82"/>
        <polygon class="st80" points="10.58 9.61 10.8 10.84 12.08 10.59 10.93 9.54 10.58 9.61"/>
        <polygon class="st7" points="9.7 9.78 10.57 11.11 10.86 11.05 10.58 9.61 9.7 9.78"/>
        <g class="st29">
          <g>
            <rect class="st80" x="5.19" y="10.4" width="2.81" height="1.47" transform="translate(-2 1.46) rotate(-10.99)"/>
            <rect class="st80" x="13.17" y="7.36" width="2.81" height="1.47" transform="translate(-1.28 2.93) rotate(-10.99)"/>
          </g>
        </g>
        <polygon class="st80" points="8.82 8.46 9.69 9.78 10.58 9.61 10.49 9.14 9.57 8.31 8.82 8.46"/>
        <polygon class="st7" points="10.58 9.61 10.93 9.54 10.49 9.14 10.58 9.61"/>
        <g class="st27">
          <rect class="st80" x="10.14" y="6.45" width="2.81" height="1.47" transform="translate(-1.16 2.34) rotate(-11.01)"/>
        </g>
        <polygon class="st7" points="7.95 7.13 8.82 8.46 9.57 8.31 8.22 7.08 7.95 7.13"/>
        <g class="st25">
          <g>
            <rect class="st7" x="4.91" y="8.96" width="2.81" height="1.47" transform="translate(-1.73 1.38) rotate(-10.99)"/>
            <rect class="st80" x="4.63" y="7.52" width="2.81" height="1.47" transform="translate(-1.46 1.3) rotate(-10.99)"/>
          </g>
        </g>
        <polygon class="st80" points="7.95 7.13 8.22 7.08 7.46 6.4 7.95 7.13"/>
        <g class="st28">
          <g>
            <rect class="st7" x="9.85" y="5.01" width="2.81" height="1.47" transform="translate(-.89 2.25) rotate(-10.99)"/>
            <rect class="st80" x="9.57" y="3.57" width="2.81" height="1.47" transform="translate(-.62 2.17) rotate(-10.99)"/>
            <rect class="st7" x="6.82" y="4.11" width="2.81" height="1.47" transform="translate(-.77 1.66) rotate(-10.99)"/>
            <rect class="st7" x="4.35" y="6.08" width="2.81" height="1.47" transform="translate(-1.19 1.22) rotate(-10.99)"/>
            <rect class="st80" x="4.07" y="4.64" width="2.81" height="1.47" transform="translate(-.92 1.14) rotate(-10.99)"/>
          </g>
        </g>
        <path class="st7" d="M31.32,49.89l11.88,1.38-24.62-22.39,14.86,1.08L7.47,6.39l9.71,14.73-12.48-1.06,24.39,23.8-12.99-.42,28.14,25.36-12.91-18.93v.02ZM30.91,44.64L6.63,20.95l11.96,1.01-7.39-11.21,20.21,18.34-14.86-1.08,24.5,22.28-11.22-1.31,10.41,15.27-22.22-20.03,12.88.41h.01Z"/>
        <path class="st84" d="M31.32,49.89l11.87,1.38-24.62-22.39,14.86,1.08L7.46,6.39l9.7,14.73-12.48-1.06,24.39,23.79-12.99-.42,28.14,25.36-12.91-18.92v.02ZM26.68,44.3l3.71.12-2.65-2.59L6.08,20.7l9.15.78,2.96.25-1.63-2.48-6.42-9.74,21.85,19.83-10.7-.78-4.16-.3,3.08,2.8,21.45,19.51-8.27-.96-3.13-.37,1.78,2.61,9.35,13.71-23.91-21.55s9.2.29,9.2.29Z"/>
        <path d="M33.93,52.07l11.04,1.29.98-.83-23.69-21.54,12.81.93.98-.83L2.88,1l-1.2.62,12.05,18.29-11.54-.98-.98.83,23.62,23.04-11.25-.36-.98.83,35.57,32.1,1.41-.29-15.66-23.01h0ZM16.09,43.45l12.99.42L4.69,20.07l12.48,1.06L7.46,6.4l25.97,23.57-14.86-1.08,24.62,22.39-11.87-1.38,12.91,18.92-28.14-25.36h0Z"/>
        <polygon points="106.81 48.14 106.92 47.66 92.71 47.66 91.72 51.95 93.07 51.95 92.53 54.32 95.07 54.32 94.2 58.2 92.72 58.53 92.93 57.57 87.7 58.93 87.64 58.94 89.87 48.92 87.07 48.92 87.35 47.66 80.98 47.66 80.55 49.61 79.82 48.92 78.27 48.92 76.93 47.66 64.1 47.66 63.82 48.92 61.64 48.92 60.3 47.66 45.3 47.66 48.43 50.37 45.28 64.49 48.09 64.5 47.52 67.03 63.21 67.03 63.62 65.19 65.62 67.03 100.22 67.03 103.03 54.36 106.89 54.36 108.26 48.14 106.81 48.14"/>
        <path class="st80" d="M64.95,48.71l-2.94,13.15,1.7,1.58h11.56l2.94-13.13-1.7-1.6s-11.56,0-11.56,0ZM71.51,61.38h-5.18l2.26-10.06-2.04-.53h7.33l-2.38,10.59h0Z"/>
        <path class="st80" d="M59.88,48.71h-11.65l2.62,2.17-1.33-.53-2.92,13.09h12.02l1.54-6.86-2.62-.74,3.17-1.7.86-3.85-1.68-1.58h0ZM54.86,61.36h-3.57l.95-4.21,3.71-.67-1.09,4.88ZM56.44,54.29l-3.73.67.95-4.19h3.58l-.79,3.51h0Z"/>
        <polygon class="st80" points="105.61 48.71 93.59 48.71 93.12 50.77 97.03 50.77 94.2 63.44 98.44 63.44 101.13 51.3 99.12 50.77 105.16 50.77 105.61 48.71"/>
        <polygon class="st80" points="78.52 63.44 90.56 63.44 91.53 59.02 87.05 60.18 86.78 61.38 81.08 61.38 83.34 60.79 86.04 48.71 81.83 48.71 78.52 63.44"/>
        <g class="st22">
          <g>
            <path d="M106.42,34.64l3.08-4.35v-6.36h-8.76l-2.51,3.83v-3.83h-10.76v2.29s-.01,0-.02-.02c-1-1.01-2.8-2.2-5.71-2.27h-13.06c0,.09-.24,6.43-.27,8.11l-3.17-8.11h-9.96l-4.56,11.73h-8.48v-11.73H6.78l2.62,10.68h2.34v11.44h13.28c2.64,0,4.87-.82,6.47-2.36v2.37h26.52l.99-2.67h2.57l.99,2.67h11.33l-.25-.64c1.14.47,2.45.74,3.88.81h.02c.59.02,1.05.03,1.5.03.58,0,1.16-.02,1.89-.06,2.62-.12,4.75-.88,6.32-2.25.08-.07.15-.14.23-.21v2.3h10.76v-4.11l2.68,4.11h7.16l1.71-2.28v-4.02l-3.37-5.12v.02ZM25.01,42.76h-9.96c-.02-1.75-.03-11.44-.03-11.44h-3.04s-.73-3-1-4.11h18.85c.07,1.24.07,2.07.07,3.89,0,1.44-.64,2.67-2,3.22,1.73.69,2.55,1.98,2.58,3.73.02,2.93-2.15,4.71-5.46,4.71M48.32,42.77h-13.55v-15.55h4.18v11.73h9.38v3.82h-.01ZM64.84,42.77l-.99-2.67h-7.15l-.99,2.67h-4.23l6.05-15.55h5.47l6.07,15.55h-4.23ZM86.54,32.66h-4.02v-.15c0-1.22-.44-1.93-1.8-1.93h-4.96v6.73c0,1.35.56,2.18,2.09,2.18h2.8c1.35,0,1.89-.69,1.89-1.93v-.69h4v1.25c0,2.76-1.93,4.64-5.78,4.82-.67.04-1.2.05-1.72.05-.43,0-.86-.01-1.37-.03-3.84-.18-5.8-2.18-5.95-5.18-.11-2.35-.03-6.58.15-10.49,2.64-.06,4.94-.08,6.67-.08h2.93c5.22,0,5.07,4.89,5.07,5.45M106.5,42.77h-3.8l-3.87-5.93h-3.89v5.93h-4.18v-15.55h4.18v5.8h3.78l3.8-5.8h3.69v2.02l-3.78,5.33,4.07,6.18v2.02Z"/>
            <path class="st1" d="M78.54,27.21h2.93c5.22,0,5.07,4.89,5.07,5.45h-4.02v-.15c0-1.22-.44-1.93-1.8-1.93h-4.96v6.73c0,1.35.56,2.18,2.09,2.18h2.8c1.36,0,1.89-.69,1.89-1.93v-.69h4v1.25c0,2.76-1.93,4.64-5.78,4.82-.67.04-1.2.05-1.73.05-.43,0-.86-.01-1.37-.03-3.84-.18-5.8-2.18-5.95-5.18-.11-2.35-.03-6.58.15-10.49,2.64-.06,4.94-.08,6.67-.08M29.83,27.21c.07,1.24.07,2.07.07,3.89,0,1.44-.65,2.67-2,3.22,1.73.69,2.55,1.98,2.58,3.73.02,2.93-2.15,4.71-5.46,4.71h-9.96c-.02-1.75-.03-11.44-.03-11.44h-3.04s-.73-3-1.01-4.11h18.85M18.54,33.34h5.54c1.15,0,1.47-.51,1.47-1.44v-1.49h-7.01v2.93M18.54,39.34h5.79c1.27,0,1.69-.64,1.69-1.56s-.42-1.49-1.67-1.49h-5.81v3.04M106.21,27.22v2.02l-3.78,5.33,4.07,6.18v2.02h-3.8l-3.87-5.93h-3.89v5.93h-4.18v-15.55h4.18v5.8h3.78l3.8-5.8h3.69M63,27.22l6.07,15.55h-4.23l-.99-2.67h-7.15l-.99,2.67h-4.23l6.05-15.55h5.47M57.99,36.62h4.56l-2.18-5.84h-.22l-2.16,5.84M38.94,27.22v11.73h9.38v3.82h-13.55v-15.55h4.18M78.54,25.87c-2.33,0-4.52.02-6.71.08l-1.25.03-.06,1.25c-.2,4.31-.25,8.37-.15,10.61.1,1.88.8,3.46,2.03,4.57,1.26,1.14,3.01,1.77,5.2,1.88.57.02,1.01.03,1.43.03.54,0,1.1-.02,1.79-.05,2.18-.1,3.91-.7,5.14-1.77,1.25-1.09,1.91-2.6,1.91-4.39v-2.59h-6.67v2.03c0,.4-.08.52-.08.53,0,0-.12.07-.47.07h-2.8c-.6,0-.75-.03-.75-.84v-5.4h3.62c.24,0,.35.03.39.05.02.05.07.2.07.55v1.5h6.7v-1.38c0-2.1-.61-3.85-1.81-5.04-1.12-1.13-2.67-1.7-4.6-1.7h-2.93M31.1,25.87H9.27l1.66,6.79h2.75c0,2.73.04,11.44.04,11.44h11.28c2.17,0,3.96-.65,5.19-1.89,1.06-1.07,1.62-2.51,1.61-4.16-.02-1.57-.57-2.88-1.6-3.84.66-.83,1.02-1.9,1.02-3.11,0-1.84,0-2.68-.07-3.96l-.07-1.27h.02ZM107.55,25.89h-5.75l-3.8,5.8h-1.72v-5.8h-6.85v18.23h6.85v-5.93h1.83l3.87,5.93h5.86v-3.76l-3.78-5.75,3.5-4.93v-3.78h-.01ZM63.91,25.89h-7.29l-6.96,17.89v-6.16h-9.38v-11.73h-6.85v18.23h23.21l.99-2.67h5.29l.99,2.67h7.11l-7.12-18.23h.01Z"/>
            <path d="M79.04,43.3c-.4,0-.83,0-1.38-.03-3.81-.18-6.09-2.17-6.26-5.48-.1-2.21-.05-6.24.15-10.52v-.3h.31c2.18-.05,4.37-.07,6.69-.07h2.93c1.65,0,2.96.47,3.88,1.4,1,1,1.52,2.5,1.51,4.32v.37h-4.67v-.47c0-1.16-.41-1.61-1.48-1.61h-4.64v6.41c0,1.3.53,1.86,1.77,1.86h2.8c1.11,0,1.57-.47,1.57-1.61v-1.01h4.64v1.57c0,3.09-2.22,4.96-6.08,5.14-.68.04-1.22.05-1.74.05M102.53,43.1l-3.87-5.93h-3.39v5.93h-4.82v-16.19h4.82v5.8h3.28l3.8-5.8h4.18v2.45l-3.71,5.24,4,6.07v2.44h-4.29ZM64.62,43.1l-.99-2.67h-6.7l-.99,2.67h-4.92l6.3-16.19h5.9l6.32,16.19h-4.92ZM62.09,36.3l-1.82-4.9-1.81,4.9h3.64-.01ZM34.45,43.1v-16.19h4.82v11.73h9.38v4.46h-14.2ZM14.73,43.08v-.32c-.02-1.55-.03-9.43-.03-11.12h-2.97l-.06-.24s-.73-3-1.01-4.11l-.1-.4h19.57l.02.3c.07,1.25.07,2.09.07,3.91,0,1.41-.57,2.54-1.6,3.2,1.42.77,2.15,2.03,2.17,3.74,0,1.38-.44,2.57-1.31,3.44-1.04,1.04-2.58,1.59-4.48,1.59h-10.28,0ZM24.32,39.02c.96,0,1.37-.37,1.37-1.23,0-.54-.15-1.17-1.35-1.17h-5.49v2.4h5.47ZM24.08,33.02c.97,0,1.15-.36,1.15-1.12v-1.17h-6.36v2.29h5.22-.01Z"/>
            <path class="st80" d="M78.54,27.21h2.93c5.22,0,5.07,4.89,5.07,5.45h-4.02v-.15c0-1.22-.44-1.93-1.8-1.93h-4.96v6.73c0,1.36.56,2.18,2.09,2.18h2.8c1.36,0,1.89-.69,1.89-1.93v-.69h4v1.25c0,2.76-1.93,4.64-5.78,4.82-.67.04-1.2.05-1.73.05-.43,0-.86-.01-1.37-.03-3.84-.18-5.8-2.18-5.95-5.18-.11-2.36-.03-6.58.15-10.49,2.64-.06,4.94-.08,6.67-.08M29.83,27.21c.07,1.24.07,2.07.07,3.89,0,1.44-.64,2.67-2,3.22,1.73.69,2.55,1.98,2.58,3.73.02,2.93-2.15,4.71-5.46,4.71h-9.96c-.02-1.75-.03-11.44-.03-11.44h-3.04s-.73-3-1.01-4.11h18.85M18.54,33.34h5.54c1.16,0,1.47-.51,1.47-1.44v-1.49h-7.01v2.93M18.54,39.34h5.79c1.27,0,1.69-.65,1.69-1.56s-.42-1.49-1.67-1.49h-5.81v3.04M106.21,27.22v2.02l-3.78,5.33,4.07,6.18v2.02h-3.8l-3.87-5.93h-3.89v5.93h-4.18v-15.55h4.18v5.8h3.78l3.8-5.8h3.69M63,27.22l6.07,15.55h-4.23l-.99-2.67h-7.15l-.99,2.67h-4.23l6.05-15.55h5.46M57.99,36.62h4.56l-2.18-5.84h-.22l-2.16,5.84M38.95,27.22v11.73h9.38v3.82h-13.55v-15.55h4.18M71.85,26.64h-.6l-.03.61c-.2,4.29-.25,8.33-.15,10.55.18,3.49,2.57,5.6,6.57,5.79.56.02.99.03,1.4.03.53,0,1.07-.02,1.76-.05,4-.18,6.38-2.23,6.38-5.46v-1.89h-5.28v1.34c0,.96-.31,1.29-1.25,1.29h-2.8c-1.05,0-1.45-.42-1.45-1.54v-6.09h4.32c.89,0,1.16.3,1.16,1.29v.8h5.31v-.69c0-1.91-.54-3.49-1.6-4.55-.99-.99-2.37-1.5-4.11-1.5-.2,0-7.44.02-9.62.07M14.41,43.4h10.6c1.98,0,3.6-.58,4.7-1.69.93-.94,1.42-2.21,1.41-3.67-.02-1.65-.68-2.93-1.92-3.77.87-.74,1.34-1.85,1.34-3.18,0-1.83,0-2.66-.07-3.92l-.03-.61H10.16l1.32,5.4h2.9s.03,11.44.03,11.44ZM19.18,31.05h5.72v.85c0,.64-.1.8-.82.8h-4.9s0-1.65,0-1.65ZM19.18,36.94h5.17c.94,0,1.02.4,1.02.84,0,.59-.17.91-1.05.91h-5.14v-1.76h0ZM106.86,26.58h-4.68l-3.8,5.8h-2.79v-5.8h-5.46v16.84h5.46v-5.93h2.9l3.87,5.93h4.79v-2.86l-3.93-5.97,3.64-5.14v-2.87ZM63.43,26.58h-6.34l-6.55,16.84h5.62l.99-2.67h6.26l.99,2.67h5.61l-6.57-16.84h0ZM58.91,35.98l1.35-3.65,1.36,3.65h-2.71ZM39.59,26.58h-5.46v16.84h14.84v-5.11h-9.38v-11.73Z"/>
          </g>
        </g>
        <g class="st23">
          <rect class="st4" x="10.84" y="27.1" width="95.76" height="15.98"/>
        </g>
        <g class="st60">
          <g>
            <path d="M36.87,26.23c-1.71,0-3.68-1.23-4.03-3.3l-.13-.78,2.04-2.17c-.53-.89-.64-1.81-.34-2.71.47-1.4,1.75-2.24,3.43-2.24h2.63c1.05,0,4.2-.48,4.34-.5l1.65-.26-2.4,2.35h16.76l1.57-1.6h10.15l-.43,1.61h2.9c.1,0,.21,0,.31.04v-.04h11.08l-1.04,3.87h-.81l-1.02,3.81h-7.92c-.29,0-.63-.11-.93-.28-.32.17-.73.28-1.04.28h-2.04c-.15,0-.3-.02-.44-.07l-.02.07h-2.95l-.85,1.46h-4.42l.02-1.52h-.78c-.19.04-.39.06-.6.06-.39,0-.75-.07-1.07-.21l-.06.21h-6.74l.55.74h-1.46c-1.36,0-2.64-.06-3.51-.74h-8.35c-.89,1.21-2.41,1.92-4.07,1.92"/>
            <path class="st80" d="M36.87,25.31c-1.32,0-2.85-.95-3.12-2.53l-.05-.32,2.24-2.37-.19-.26c-.56-.77-.71-1.51-.46-2.25.34-1.01,1.3-1.61,2.56-1.61h2.63c.72,0,2.24-.19,3.31-.34l-1.97,1.93h19.4l1.57-1.61h4.43v1.26h.29l.69-1.26h3.16l-.24.92-.37.69h4.27c.14,0,.29.09.35.18l.49.66.2-.84h9.14l-.54,2.03h-.81l-1.02,3.81h-7.22c-.2,0-.51-.15-.6-.26l-.28-.36-.31.34c-.1.11-.53.28-.77.28h-2.04c-.2,0-.41-.11-.49-.22l-.49-.6-.2.82h-2.78l-.85,1.61h-2.94l.02-1.67h-1.85c-.14.04-.29.06-.46.06-.36,0-.67-.09-.93-.26-.07-.05-.14-.1-.2-.16l-.47-.44-.23.86h-7.87l.55.74c-.92,0-2.09-.08-2.67-.64l-.11-.11h-9.19l-.11.18c-.7,1.09-1.99,1.74-3.47,1.74"/>
            <polygon points="68.98 22.73 69.86 19.45 70.51 18.22 71.25 18.22 70.04 22.73 68.98 22.73"/>
            <polygon points="71.25 18.22 70.04 22.73 68.98 22.73 69.86 19.45 70.51 18.22 71.25 18.22"/>
            <path d="M75.24,22.38l1.12-4.16h1.06l-1.02,3.8h.96l-.19.71h-1.65c-.19,0-.32-.18-.27-.36"/>
            <polygon points="83.35 18.92 82.33 22.73 81.26 22.73 82.28 18.92 81.74 18.92 81.32 18.22 84.34 18.22 84.16 18.92 83.35 18.92"/>
            <polygon points="80.92 18.93 80.5 18.22 79 18.22 77.79 22.73 80.07 22.73 80.26 22.02 79.04 22.02 79.38 20.78 80.19 20.78 80.37 20.11 79.56 20.11 79.87 18.93 80.92 18.93"/>
            <path d="M73.81,22.73h-2.3c-.25,0-.34-.15-.27-.41l.99-3.7c.07-.26.24-.41.49-.41h2.3c.25,0,.35.15.28.41l-.99,3.7c-.07.26-.25.41-.5.41M74.15,18.93h-.95l-.83,3.09h.95l.83-3.09Z"/>
            <polygon points="68.73 16.61 66.01 22.31 66.34 16.61 63.06 16.61 62.16 17.53 64.61 17.53 64.54 24.34 66.41 24.34 70.49 16.62 70.49 16.61 68.73 16.61"/>
            <path d="M63.44,20.33h-.52l-.03.03-.37.44-.12.14-.18-.54c-.03-.09-.03-.12-.03-.13v-.07c.02-.06.05-.1.09-.14.05-.03.11-.05.18-.05h.41l.03-.03.41-.47.14-.16h-.91c-.16,0-.32.03-.46.1s-.27.16-.37.28c-.1.12-.18.26-.22.42-.02.07-.03.14-.03.2v.13c-.22.12-.41.26-.55.43-.15.18-.26.39-.33.64-.06.24-.07.46,0,.65.06.2.18.36.35.47s.38.17.62.17c.13,0,.25,0,.36-.04.08-.02.17-.05.27-.1v.02l.03.07h.78l-.04-.13-.13-.38c.1-.11.18-.21.24-.31.07-.11.12-.26.17-.42l.29-1.08.03-.12h-.13l.02-.02ZM61.29,21.89c-.03-.09-.03-.19,0-.29.02-.07.05-.14.09-.21.04-.07.08-.13.12-.17.03-.03.07-.07.11-.09.02,0,.04-.03.07-.04l.34,1.02s-.09.04-.12.04c-.05,0-.11.02-.18.02-.11,0-.2-.02-.28-.07-.07-.05-.12-.11-.15-.2M62.59,20.96h.19l-.14.51s-.02.05-.04.08l-.2-.59h.19Z"/>
            <path d="M51.09,22.64l-.3-1.6h.24c.28,0,.48-.16.56-.45l.52-1.96c.04-.15.03-.28-.04-.36-.06-.08-.16-.12-.3-.12h-.27l.06.28-.02.18-.06.15-.02-.15v-.22l-.1-.24h-2.95l-.03.12.04.02s.54.29.44.69c-.11.41-1,3.73-1,3.73l-.02.08h1.27l.43-1.59.25,1.29c.08.39.33.68.74.85.32.14.78.15.9.15h.17l-.09-.1s-.33-.36-.41-.75M50.75,18.99l-.37,1.37h-.62l.37-1.37h.62Z"/>
            <path d="M54.34,18.15h-1.95l-.03.12.04.02s.54.29.44.69c-.02.06-.05.21-.11.4-.13.49-.35,1.28-.51,1.89v.04l.03.02s.05.03.38-.24l.14-.12-.1.2-.11.2s-.15.12-.18.16c-.05.07-.13.15-.19.21-.1.11-.12.14-.13.16-.14.53-.21.8-.21.8l-.02.08h2.32l.22-.83h-1.04l1.02-3.8h-.01Z"/>
            <path d="M47.27,19.35l-.1-.08h.14l.19-.06-.05-1.06h-1.82l-.03.12.04.02s.38.21.45.45c.02.07,0,.13-.03.19-.19.32-2.15,3.71-2.17,3.74l-.03.1h1.25l.53-1.02h.79l-.02,1.02h1.25l.02-.06-.15-3.27-.25-.11v.02ZM46.53,19.88l-.06,1.14h-.49s.55-1.14.55-1.14Z"/>
            <path d="M58.53,18.15l-.22.83h.8l.31-.05.16.02-.32.15-.3.13-.95,3.55h1.27l.33-1.23-.29-.04-.11-.07h.18l.29-.13.63-2.34h.24c.19,0,.38-.08.51-.22l.6-.61h-3.13Z"/>
            <path d="M42.79,21.39l-.15.57h-.65l.76-2.83-.2-.1-.08-.07.27.03h.7l-.15.56h1.28l.24-.91c.05-.19,0-.3-.04-.36s-.13-.12-.31-.12h-3.4l-.03.12.04.02s.54.29.44.69l-.89,3.32c-.04.16-.03.28.04.37.06.08.16.12.3.12h.37l-.04-.31.08-.26v.12l.06.45h1.83c.28,0,.49-.17.56-.45l.25-.95h-1.28,0Z"/>
            <path d="M57.89,18.99l.22-.83h-3.08l-.03.12.04.02s.54.29.44.69l-.33,1.22.15.12.27.03.13.07-.3.02-.16.07-.17.03-.6,2.24h2.4l.22-.83h-1.13l.3-1.12h.73l.21-.79h-.73l.28-1.06h1.14Z"/>
            <path d="M39.73,20.22l-.39-.14-.26-.04-.42-.23.38.12.4-.04-.08-.09s-.57-.58-.59-.61c-.55-.54-1-1-.9-1.3.08-.26.39-.31.64-.31h.66c.13,0,.58.02.79.27.1.11.13.26.1.44l-.03.18,2.17-2.13-.21.05s-.8.18-1.83.18h-2.31c-1.01,0-1.74.44-1.99,1.2-.03.08-.06.21-.07.32v.04l.36.15.08.05h-.02l-.16.06h-.27v.08c.05.58.61,1.21.88,1.51.3.34,1.21,1.36,1.32,1.49.05.05.11.08.17.11.05.02.1.04.12.08l.34.43.15.63h0l-.16-.32-.32-.17v.1c0,.13-.02.25-.07.38-.19.49-.6.85-.98.86h0c-1.18,0-1.48-1.19-1.54-2.19v-.14l-1.34,1.42v.03c.31,1.5,1.75,2.05,2.65,2.05,1.53,0,2.85-.94,3.19-2.27.19-.73,0-1.65-.44-2.23h0v-.02Z"/>
          </g>
        </g>
      </g>
    </g>
  </g>
</svg>