<?xml version="1.0" encoding="UTF-8"?>
<svg id="Layer_1" data-name="Layer 1" xmlns="http://www.w3.org/2000/svg" viewBox="0 0 160 160">
  <defs>
    <style>
      .cls-1 {
        fill: #231f20;
      }
    </style>
  </defs>
  <path class="cls-1" d="M108.89,79.73c0,3.89-.74,7.56-2.17,11.04-1.44,3.48-3.52,6.62-6.29,9.38-2.73,2.73-5.85,4.83-9.34,6.27-3.51,1.47-7.21,2.21-11.04,2.21s-7.63-.74-11.14-2.21c-3.49-1.44-6.62-3.55-9.33-6.27-2.76-2.76-4.85-5.9-6.29-9.38-1.47-3.48-2.18-7.15-2.18-11.04s.72-7.54,2.18-11.01c1.43-3.5,3.52-6.62,6.29-9.38,2.72-2.73,5.84-4.82,9.33-6.29,3.51-1.44,7.19-2.16,11.05-2.16s7.56.72,11.04,2.15c3.48,1.44,6.6,3.55,9.43,6.3,2.76,2.76,4.84,5.88,6.29,9.38,1.43,3.48,2.17,7.14,2.17,11.01"/>
</svg>