<?xml version="1.0" encoding="UTF-8"?>
<svg id="Layer_1" data-name="Layer 1" xmlns="http://www.w3.org/2000/svg" viewBox="0 0 160 160">
  <defs>
    <style>
      .cls-1 {
        fill: #231f20;
      }

      .cls-2 {
        fill: #fff;
      }
    </style>
  </defs>
  <path class="cls-1" d="M30.95,101.5c-.56,0-1.1-.17-1.58-.51-.84-.61-1.26-1.67-1.06-2.69l3.86-19.57-14.64-13.58c-.75-.7-1.05-1.8-.73-2.8.33-.99,1.2-1.72,2.25-1.84l19.81-2.38,8.38-18.11c.44-.94,1.4-1.56,2.44-1.56s2.01.61,2.43,1.56l8.39,18.11,19.81,2.38c1.05.13,1.92.85,2.24,1.84.32,1,.03,2.09-.74,2.8l-14.63,13.58,3.88,19.57c.19,1.02-.22,2.08-1.07,2.69-.47.34-1.02.51-1.58.51-.44,0-.9-.1-1.3-.32l-17.44-9.73-17.44,9.73c-.4.22-.86.32-1.31.32"/>
  <path class="cls-2" d="M49.68,41.16l9.02,19.46,21.29,2.56-15.72,14.59,4.15,21.05-18.74-10.45-18.74,10.45,4.15-21.05-15.72-14.59,21.29-2.56,9.02-19.46ZM49.68,35.79c-2.09,0-3.99,1.22-4.88,3.11l-7.75,16.74-18.32,2.22c-2.08.24-3.83,1.67-4.47,3.66-.65,2-.08,4.18,1.45,5.6l13.51,12.56-3.56,18.11c-.41,2.05.42,4.15,2.1,5.38.94.68,2.06,1.02,3.16,1.02.91,0,1.8-.22,2.63-.67l16.12-8.98,16.12,8.98c.83.45,1.72.67,2.63.67,1.1,0,2.21-.34,3.16-1.02,1.68-1.23,2.51-3.33,2.1-5.38l-3.56-18.11,13.51-12.56c1.53-1.42,2.1-3.6,1.45-5.6-.64-1.99-2.39-3.42-4.47-3.66l-18.32-2.22-7.75-16.74c-.89-1.9-2.78-3.11-4.88-3.11"/>
  <path class="cls-1" d="M129.05,121.03c-.44,0-.91-.1-1.31-.32l-17.44-9.72-17.41,9.72c-.42.22-.86.32-1.31.32-.57,0-1.13-.17-1.58-.51-.86-.61-1.26-1.67-1.06-2.69l3.85-19.57-14.63-13.56c-.77-.73-1.06-1.82-.74-2.82.32-.99,1.19-1.69,2.24-1.82l19.8-2.4,8.4-18.09c.44-.95,1.4-1.55,2.43-1.55s2,.59,2.44,1.55l8.4,18.09,19.78,2.4c1.06.13,1.92.83,2.24,1.82.33,1,.05,2.09-.72,2.82l-14.62,13.56,3.85,19.57c.2,1.02-.22,2.08-1.06,2.69-.48.34-1.02.51-1.58.51"/>
  <path class="cls-2" d="M110.32,60.7l9.02,19.46,21.29,2.56-15.72,14.59,4.15,21.05-18.74-10.45-18.74,10.45,4.15-21.05-15.72-14.59,21.29-2.56,9.02-19.46ZM110.32,55.32c-2.09,0-3.99,1.22-4.88,3.11l-7.75,16.74-18.32,2.22c-2.08.24-3.83,1.67-4.47,3.66-.65,2-.08,4.18,1.45,5.6l13.51,12.56-3.56,18.11c-.41,2.05.42,4.15,2.1,5.38.95.68,2.06,1.02,3.16,1.02.91,0,1.8-.22,2.63-.67l16.12-8.98,16.12,8.98c.83.45,1.72.67,2.63.67,1.1,0,2.22-.34,3.16-1.02,1.68-1.23,2.51-3.33,2.1-5.38l-3.56-18.11,13.51-12.56c1.53-1.42,2.1-3.6,1.45-5.6-.64-1.99-2.39-3.42-4.47-3.66l-18.32-2.22-7.75-16.74c-.89-1.9-2.78-3.11-4.88-3.11"/>
</svg>