<?xml version="1.0" encoding="UTF-8"?>
<svg id="Layer_1" data-name="Layer 1" xmlns="http://www.w3.org/2000/svg" viewBox="0 0 160 160">
  <defs>
    <style>
      .cls-1 {
        fill: #fff;
      }

      .cls-2 {
        fill: #a6a8ab;
      }
    </style>
  </defs>
  <path class="cls-2" d="M30.95,101.5c-.56,0-1.11-.16-1.58-.51-.85-.61-1.26-1.66-1.06-2.69l3.85-19.57-14.62-13.57c-.77-.72-1.06-1.81-.73-2.81.32-.99,1.19-1.7,2.23-1.83l19.81-2.39,8.4-18.11c.43-.94,1.39-1.55,2.43-1.55s2,.6,2.43,1.55l8.39,18.11,19.81,2.39c1.03.13,1.91.84,2.24,1.83.32,1,.03,2.09-.73,2.81l-14.63,13.57,3.85,19.57c.2,1.03-.2,2.08-1.06,2.69-.47.35-1.02.51-1.58.51-.44,0-.9-.1-1.31-.33l-17.42-9.72-17.44,9.72c-.41.23-.85.33-1.31.33"/>
  <path class="cls-1" d="M49.69,35.78c-2.09,0-3.99,1.22-4.88,3.11l-7.76,16.74-18.32,2.22c-2.07.25-3.82,1.68-4.47,3.67-.64,1.99-.07,4.17,1.45,5.59l13.53,12.56-3.56,18.11c-.41,2.05.42,4.15,2.11,5.38.93.68,2.05,1.03,3.16,1.03.9,0,1.8-.23,2.61-.68l16.12-8.98,16.12,8.98c.82.45,1.72.68,2.61.68,1.11,0,2.23-.35,3.16-1.03,1.69-1.23,2.52-3.33,2.11-5.38l-3.56-18.11,13.53-12.56c1.53-1.42,2.09-3.6,1.45-5.59-.65-1.99-2.4-3.42-4.47-3.67l-18.32-2.22-7.76-16.74c-.89-1.9-2.78-3.11-4.88-3.11M49.69,41.16l9.02,19.46,21.29,2.57-15.72,14.59,4.14,21.04-18.73-10.43-18.73,10.43,4.14-21.04-15.72-14.59,21.29-2.57,9.02-19.46Z"/>
  <path class="cls-2" d="M129.05,121.03c-.45,0-.9-.1-1.31-.33l-17.42-9.72-17.44,9.72c-.4.23-.85.33-1.3.33-.56,0-1.11-.17-1.58-.51-.85-.61-1.26-1.66-1.07-2.69l3.85-19.57-14.63-13.57c-.76-.7-1.05-1.81-.73-2.8.33-1,1.2-1.72,2.24-1.84l19.8-2.38,8.4-18.11c.44-.94,1.39-1.56,2.44-1.56s1.99.61,2.44,1.56l8.39,18.11,19.79,2.38c1.05.13,1.91.84,2.23,1.84.33.99.05,2.09-.72,2.8l-14.62,13.57,3.85,19.57c.19,1.03-.2,2.08-1.07,2.69-.45.34-1.01.51-1.57.51"/>
  <path class="cls-1" d="M110.31,55.31c-2.09,0-3.99,1.22-4.88,3.11l-7.76,16.74-18.32,2.22c-2.07.25-3.82,1.68-4.47,3.67-.64,1.99-.08,4.17,1.45,5.59l13.53,12.56-3.56,18.11c-.41,2.05.42,4.15,2.11,5.38.93.68,2.05,1.03,3.16,1.03.9,0,1.8-.23,2.61-.68l16.12-8.98,16.12,8.98c.82.45,1.72.68,2.61.68,1.11,0,2.23-.35,3.16-1.03,1.69-1.23,2.52-3.33,2.11-5.38l-3.56-18.11,13.53-12.56c1.52-1.42,2.09-3.6,1.45-5.59-.65-1.99-2.4-3.42-4.47-3.67l-18.32-2.22-7.76-16.74c-.89-1.9-2.78-3.11-4.88-3.11M110.31,60.69l9.02,19.46,21.29,2.57-15.72,14.59,4.14,21.04-18.73-10.43-18.73,10.43,4.14-21.04-15.72-14.59,21.29-2.57,9.02-19.46Z"/>
</svg>